<svg id="Layer_1" data-name="Layer 1" xmlns="http://www.w3.org/2000/svg" viewBox="0 0 165.91 175.75"><title>angular</title><polygon points="82.69 0 0 29.1 13.07 137.44 82.78 175.75 152.85 136.92 165.91 28.59 82.69 0" style="fill:#b3b3b3"/><polygon points="157.66 34.85 82.5 9.21 82.5 166.6 145.49 131.73 157.66 34.85" style="fill:#a6120d"/><polygon points="9.28 35.31 20.48 132.2 82.5 166.6 82.5 9.21 9.28 35.31" style="fill:#dd1b16"/><path d="M103.74,93.87L83,103.55H61.24L51,129.19l-19.07.35L83.05,15.8Zm-2-4.87L83.19,52.27,68,88.37H83Z" transform="translate(-0.55 -0.88)" style="fill:#f2f2f2"/><polygon points="82.5 14.93 82.63 51.4 99.9 87.52 82.53 87.52 82.5 102.65 106.51 102.67 117.73 128.67 135.97 129.01 82.5 14.93" style="fill:#b3b3b3"/></svg>