<svg id="Layer_1" data-name="Layer 1" xmlns="http://www.w3.org/2000/svg" viewBox="0 0 113.93 113.92"><title>git</title><path d="M111.78,51.89L62,2.15a7.34,7.34,0,0,0-10.37,0L41.33,12.48l13.1,13.1a8.71,8.71,0,0,1,11,11.11L78.1,49.32a8.72,8.72,0,1,1-5.23,4.92L61.09,42.46v31a8.71,8.71,0,1,1-7.18-.25V41.92A8.61,8.61,0,0,1,51.05,40a8.73,8.73,0,0,1-1.88-9.54L36.26,17.55,2.15,51.66A7.34,7.34,0,0,0,2.15,62l49.74,49.74a7.34,7.34,0,0,0,10.38,0l49.51-49.5a7.34,7.34,0,0,0,0-10.38" style="fill:#f03c2e"/></svg>