<svg id="Layer_1" data-name="Layer 1" xmlns="http://www.w3.org/2000/svg" viewBox="0 0 94.14 90.69"><title>jquery</title><path d="M6,30.51c-8.34,12-7.3,27.57-.93,40.3,0.15,0.31.31,0.61,0.47,0.91s0.19,0.39.3,0.57L6,72.61l0.33,0.59,0.61,1,0.35,0.57c0.23,0.37.47,0.74,0.71,1.1l0.3,0.46c0.33,0.5.67,1,1,1.47l0,0,0.17,0.23c0.3,0.42.62,0.83,0.93,1.24l0.35,0.45,0.86,1.06L12,81.27c0.39,0.46.79,0.92,1.2,1.37l0,0,0,0.05c0.4,0.43.81,0.86,1.22,1.28l0.39,0.39,1,1,0.4,0.38q0.66,0.62,1.33,1.21l0,0,0.23,0.2,1.21,1,0.5,0.4,1,0.79,0.54,0.41,1.13,0.81,0.41,0.29L22.74,91c0.36,0.25.73,0.49,1.1,0.73L24.32,92c0.57,0.36,1.14.71,1.72,1.05l0.48,0.27,1.29,0.73,0.72,0.37,0.93,0.48L29.66,95,30,95.19l1.47,0.68L31.82,96q0.85,0.37,1.71.71l0.42,0.16c0.53,0.21,1.07.41,1.61,0.6l0.2,0.07c0.59,0.21,1.2.4,1.8,0.59L38,98.27a17.5,17.5,0,0,0,1.86.52c40.31,7.35,52-24.22,52-24.22C82,87.38,64.58,90.76,48,87c-0.63-.14-1.23-0.34-1.85-0.52l-0.46-.14q-0.9-.27-1.78-0.58l-0.24-.09-1.57-.58-0.44-.17q-0.85-.34-1.69-0.7l-0.34-.15-1.43-.66-0.41-.2-1.1-.56L36,82.26c-0.45-.24-0.89-0.49-1.32-0.74l-0.45-.25c-0.58-.34-1.15-0.7-1.72-1.06L32,79.9l-1.23-.82-0.4-.28L29.26,78l-0.51-.39-1-.82-0.47-.37c-0.44-.36-0.87-0.73-1.3-1.1l-0.14-.12c-0.46-.41-0.92-0.83-1.37-1.25L24,73.56c-0.33-.32-0.66-0.64-1-1l-0.39-.39q-0.62-.63-1.21-1.28l-0.06-.06c-0.42-.46-0.83-0.92-1.22-1.39l-0.32-.38c-0.3-.36-0.59-0.72-0.88-1.09l-0.32-.4c-0.35-.45-0.69-0.9-1-1.36-9.18-12.53-12.48-29.8-5.14-44" transform="translate(0 -9.21)" style="fill:#0868ac"/><path d="M31.85,20.42c-6,8.67-5.7,20.29-1,29.46a38.38,38.38,0,0,0,2.67,4.45,21.17,21.17,0,0,0,3.1,3.87c0.43,0.48.89,0.94,1.35,1.4L38.33,60c0.45,0.44.91,0.87,1.38,1.28l0.06,0h0c0.52,0.46,1.06.9,1.61,1.34l0.37,0.29c0.55,0.42,1.11.84,1.69,1.23l0,0,0.77,0.51,0.37,0.24q0.62,0.4,1.25.77l0.18,0.1,1.11,0.62,0.39,0.21L48.34,67l0.12,0.05c0.53,0.26,1.07.51,1.61,0.75L50.42,68l1.32,0.54,0.57,0.21,1.21,0.42,0.55,0.18a13.26,13.26,0,0,0,1.76.51C87,75,94.14,51,94.14,51c-6.48,9.33-19,13.78-32.4,10.31C61.14,61.18,60.56,61,60,60.83l-0.53-.17-1.23-.42L57.65,60l-1.33-.53L56,59.34q-0.82-.36-1.62-0.75l-0.81-.42-0.47-.24-1-.58-0.25-.14q-0.63-.37-1.25-0.76l-0.38-.25-0.81-.53c-0.57-.4-1.13-0.81-1.68-1.23l-0.38-.3A37.53,37.53,0,0,1,34.58,36c-2.31-7.43-1.81-15.78,2.19-22.55" transform="translate(0 -9.21)" style="fill:#0868ac"/><path d="M53.61,12.88a18.14,18.14,0,0,0-1.44,17.5A24.64,24.64,0,0,0,66.32,43.6l0.77,0.27L67.44,44a9.73,9.73,0,0,0,1.11.32c17.18,3.32,21.85-8.82,23.09-10.6C87.55,39.56,80.69,41,72.27,38.93c-0.67-.16-1.4-0.4-2-0.63a24.64,24.64,0,0,1-6.66-3.59C56,29,51.36,18.09,56.27,9.21" transform="translate(0 -9.21)" style="fill:#0868ac"/></svg>