<svg id="svg2" xmlns="http://www.w3.org/2000/svg" viewBox="0 0 111.68 98.12"><defs><style>.cls-1{fill:#fea620;}.cls-2{fill:#fff;}</style></defs><title>jquery-ui</title><path id="path378" class="cls-1" d="M0,12.27V49.06C0,76.15,22.22,98.12,49.64,98.12H62c27.41,0,49.64-22,49.64-49.06V12.27A12.34,12.34,0,0,0,99.27,0H12.41A12.34,12.34,0,0,0,0,12.27"/><path id="path380" class="cls-2" d="M18.61,42.93a37.23,37.23,0,0,0,74.46,0H74.45a18.61,18.61,0,0,1-37.22,0V24.53H18.61v18.4h0Z"/><path id="path382" class="cls-2" d="M79.11,14.41L74.77,32.2l18,4.6L97.41,19Z"/></svg>