<svg xmlns="http://www.w3.org/2000/svg" viewBox="0 0 232.1 250.3" enable-background="new 0 0 232.1 250.3"><g fill="#664f44"><path d="m23.7 181v.1z"/><path d="m17.5 171.3v-.1z"/><path d="m231.9 169.6c-.1-.4-.2-.8-.2-1.2-.1-.2-.1-.5-.2-.7-.2-.5-.4-1.1-.6-1.6-.5-1-1.2-2-2.1-2.8-.9-.8-1.9-1.4-2.9-1.7-1-.4-2-.6-2.9-.6-.3 0-.5 0-.7 0 .5-4.9-1.3-8.4-2.4-10 .1-.1.1-.2.2-.2 1-1.3 1.9-2.5 2.6-3.7l.1-.2c.6-1.1.9-2.1 1.1-3.1.1-.8.2-1.6.2-2.2v-.1-.2-.2-.1c0-.1 0-.3 0-.4 0-.3-.1-.6-.1-.9-.2-1.5-.8-3.4-2-5.3-.6-1-1.4-2-2.4-2.8-1-.9-2.2-1.6-3.6-2.2-.1 0-.2-.1-.3-.1-3.1-3.6-6.5-6.2-9.5-8.2-1.5-1-3-1.8-4.2-2.5-1.2-.7-2.2-1.2-2.8-1.5-1.3-.7-2.2-1.1-2.7-1.3-1-.5-1.8-.8-2.3-1.1-.4-.2-.6-.4-.6-.4 0 0-.1-.1-.1-.3-.1-.3-.2-.7-.3-1.3-.2-1-.3-2.5-.4-4.5-.2-3.2-.4-7.5-.8-13.4-.1-1.9-.3-3.6-.6-5.3-.4-2.6-1.1-5-1.9-7.1-.2-.5-.4-1-.6-1.4-.2-.3-.3-.6-.4-.8-.2-.3-.3-.6-.5-.9-.1-.1-.2-.3-.3-.6-.3-.4-.6-.9-.9-1.4l-.1-.1-.2-.2-.1-.2c-.6-.8-1.3-1.5-2-2.2-.5-1.3-1.2-3.2-2.4-5.4-1-1.9-2.3-4-4-6-.6-.7-1.3-1.4-2-2l.2-.2c.3-.3 6.3-8.5 10.6-18.7 8-19 3.3-29.4-2.1-34.8l-.2-.2-.2-.1c-5.2-5-11.7-7.2-19.3-7.2-15.8 0-32.5 9.9-36.9 12.6l-9.6-8.2c-.8-.7-1.8-1.4-2.7-1.9-1-.5-2-1-3.1-1.3-2.1-.7-4.4-1-6.8-1-4.8 0-10 1.2-15.6 3.4-8.3 3.3-17.4 8.8-26.8 16.1-9.4 7.3-18.9 16.5-28 27.1-11.1 13-19.9 26.3-26 38.7-3 6.2-5.4 12.1-7 17.7-1.6 5.5-2.5 10.7-2.5 15.4 0 3.4.5 6.6 1.5 9.4.5 1.2 1 2.4 1.7 3.5.9 1.4 2 2.7 3.2 3.8l10 8.1 1.1.9v.1c-.1.2-.2.4-.2.6-.1.3-.2.6-.3.9-.1.2-.1.4-.2.6-.1.3-.2.6-.3.9-.1.2-.1.4-.2.6-.1.3-.2.6-.3.9-.1.2-.1.4-.2.6-.1.3-.1.6-.2 1 0 .2-.1.4-.1.6-.1.3-.1.7-.2 1 0 .1 0 .2 0 .3 0 .1 0 .2-.1.4 0 .3-.1.7-.1 1 0 .2-.1.4-.1.6 0 .1 0 .3 0 .4 0 .2 0 .4 0 .6 0 .2 0 .4 0 .6 0 .4 0 .9 0 1.3 0 .1 0 .2 0 .4v.1c0 .3 0 .6 0 .8 0 .4 0 .9.1 1.3 0 .2 0 .4 0 .6 0 .1 0 .3 0 .5 0 .3.1.6.1.9 0 .2 0 .4.1.6 0 .1 0 .2 0 .3 0 .2.1.4.1.6 0 .2.1.4.1.6 0 .2.1.3.1.5 0 .1.1.2.1.3 0 .2.1.4.1.6 0 .2.1.5.2.8 0 .1 0 .2.1.3.1.2.1.5.2.7.1.2.1.4.2.7 0 .1.1.2.1.3 0 .1.1.3.1.4l.1.2c.1.2.1.4.3.7 0 .1.1.1.1.2.1.2.1.4.2.5l.1.2c0 .1.1.1.1.2l.1.2.1.2.1.1c0 .1.1.1.1.2l.1.2c.1.2.1.3.2.4.1.2.2.4.3.7v.1c0 .1.1.1.1.2.1.3.2.5.3.6.1.2.2.4.4.7l.1.1c.1.2.2.3.3.5l.1.1c0 .1.1.2.2.3.1.1.1.2.2.4l.1.1c.1.1.2.3.2.4.1.1.1.2.2.3.1.2.2.4.4.6l.1.1c.1.1.1.2.2.3.1.1.2.2.2.3.1.1.2.3.4.6l.1.1c.1.1.1.2.2.3.1.1.2.3.3.4.1.1.2.3.4.5l.1.1c.1.1.2.2.3.3.1.1.2.3.3.4.1.1.2.3.4.5.1.1.2.2.3.3.1.1.3.3.4.4.1.1.2.2.4.4.1.1.2.2.3.3.1.1.3.3.4.4.1.1.2.2.3.3l.1.1c.2.2.4.3.6.5l.2.2c.1.1.2.2.3.3.2.2.4.4.6.5.1.1.2.1.3.2 0 0 .1.1.3.2l.1.1c.3.2.5.4.8.6h.1c.1 0 .2.1.3.2.3.2.7.5 1 .7l.2.1.1.1.2.1c.3.2.6.3.8.5h.1c.1.1.2.1.2.1h.1c.1 0 .2.1.2.1.2.1.5.3.7.4l.2.1.2.1.1.1c.2.1.5.2.7.4.1.1.2.1.4.2l.2.1.1.1h.1c.4.2.7.3 1.1.5l.2.1c.5.2.9.3 1.3.5h.1l.2.1c.2.1.4.1.6.2.1 0 .2.1.3.1.1 0 .3.1.4.1h.1.1c.2.1.4.1.6.2h.1c.2.1.5.1.7.2h.1.2c.1 0 .2 0 .3.1h.1c.3.1.7.1 1 .2h.1c.5.1 1 .2 1.5.2h.1c.5.1.9.1 1.3.1h.2.2c.4 0 .8.1 1.3.1h.1.3c.3 0 .5 0 .8 0 .1.1.1.2.1.3.9 1.8 1.9 3.5 2.9 5.3 15.8 31 51.4 52.2 89 52.2 37.6 0 74.1-29.5 86-64.8.5-1.4 1-2.7 1.4-4 1.4-1.8 2.4-3.7 3-5.6.8-1.5.9-3.8.5-5.6"/><path d="m216.6 228.8c-.8.8-1.8 1.2-3 1.2-1.2 0-2.2-.4-3-1.2-.8-.8-1.2-1.8-1.2-3 0-1.2.4-2.3 1.3-3.1.8-.8 1.8-1.1 2.9-1.1 1.2 0 2.2.4 3 1.2.8.8 1.2 1.8 1.2 3 .1 1.2-.3 2.2-1.2 3m-5.4-5.5c-.7.7-1 1.5-1 2.4 0 1 .3 1.8 1 2.5.7.7 1.5 1 2.5 1 1 0 1.8-.3 2.5-1 .7-.7 1-1.5 1-2.5 0-.9-.3-1.8-1-2.4-.7-.7-1.5-1.1-2.5-1.1-1 .1-1.8.4-2.5 1.1m3.8 4.6c-.4.3-.8.4-1.2.4-.6 0-1.2-.2-1.7-.7-.5-.5-.7-1.1-.7-1.8 0-.7.2-1.3.6-1.8.4-.5 1-.7 1.7-.7.4 0 .8.1 1.2.3.5.3.9.8 1 1.6h-1.1c-.1-.3-.2-.6-.4-.7-.2-.1-.4-.2-.6-.2-.3 0-.6.1-.8.4-.2.3-.3.7-.3 1.2 0 .5.1.9.3 1.1.2.2.5.4.8.4.3 0 .5-.1.7-.2.1-.2.2-.4.3-.6h1c-.1.6-.4 1-.8 1.3"/></g><g fill="#90694c"><path d="m226.1 171c0 0 0-1.5-.9-2.8-.1-.1-.1-.1-.2-.2l-.1-.1c-.1-.1-.2-.2-.3-.3-.2-.2-.5-.3-.8-.5-.2-.1-.3-.1-.5-.2-.5-.2-1-.3-1.7-.3-.5 0-1 0-1.6.1-.2 0-.5.1-.7.1h-.1c0 0 0 .1.1.2 0 .1.1.2.2.4 0 .1.1.1.1.2.1.3.3.7.4 1.2 0 0 0 .1-.1.3v.1c-.2.7-.8 2.4-2.3 4.7-.3.4-.5.8-.9 1.2-4.3 5.7-14.2 14.4-36.3 21.3-7.5 2-14.6 3-20.7 3-9.1 0-16.1-2-19.7-5.5-.3-.3-.6-.6-.9-.9-.2-.2-.4-.5-.6-.7-.1-.1-.1-.2-.2-.3-1.6-2.2-2.5-4.7-2.8-7.2-.3-3 .2-6.1 1.6-8.5 1.1-2 2.6-3.5 4.6-4.4 1-.4 2-.7 3.1-.8.2 0 .5 0 .9 0 .8 0 1.8 0 3.1 0 .1 0 .3 0 .4 0 4.3 0 11.1-.2 19.2-1.7 14.7-2.8 33.7-9.9 49.5-28.1v-.1c-.1-1.3-.6-3.7-2.5-5.4-.3-.3-.7-.6-1.2-.8-.2-.1-.5-.3-.8-.4-.3-.1-.5-.2-.8-.3-.3-.2-.7-.3-.9-.5v-.1c-.1-.2-.3-.3-.4-.5-5.5-6.4-12.3-9.7-15.1-11.2-1.3-.7-2.1-1-2.1-1-5.9-2.7-6.8-3.7-7.5-12.8-.2-3.3-.4-7.6-.8-13.5 0-.8-.1-1.5-.2-2.2 0-.2 0-.3-.1-.5-.1-.7-.2-1.3-.3-1.9v-.2-.2c-.1-.5-.2-1-.3-1.4 0-.2-.1-.4-.1-.6-.1-.5-.2-1-.4-1.4-.1-.2-.1-.5-.2-.7-.1-.3-.2-.5-.3-.7-.1-.2-.2-.5-.3-.7-.1-.3-.2-.5-.3-.8 0-.1-.1-.2-.1-.3 0-.1-.1-.2-.1-.3v-.1l-.1-.3c-.1-.2-.2-.4-.3-.6v-.1l-.1-.2-.1-.2c-.2-.4-.4-.7-.7-1l-.2-.2c-.3-.3-.5-.6-.8-.9l-.1-.1-.1-.1c-.2-.2-.4-.4-.5-.6l-.2-.2c-.2-.2-.5-.4-.7-.6v-.1-.1-.1-.1-.1l-.1-.2v-.1c-.1-.4-.3-.8-.5-1.4-.1-.1-.1-.3-.2-.4v-.1c-.1-.2-.1-.3-.2-.5-.2-.4-.3-.8-.5-1.2-.1-.1-.1-.3-.2-.4-.1-.3-.3-.6-.4-.9-.1-.2-.2-.3-.3-.5-.1-.3-.3-.6-.5-.8-.1-.2-.2-.4-.3-.6-.2-.3-.3-.6-.5-.8-.1-.2-.2-.4-.4-.6-.2-.3-.4-.6-.6-.8-.1-.2-.3-.4-.4-.5-.2-.3-.5-.6-.7-.9-.1-.1-.3-.3-.4-.4-.1-.1-.2-.2-.4-.3-.3-.3-.6-.6-.9-.8l-.2-.1c-.4-.3-.8-.7-1.3-.9l-.1-.1c-.2-.1-.4-.2-.6-.4h-.1c-.2-.1-.4-.2-.5-.3h-.1c-.2-.1-.5-.2-1-.4-.2 0-.3-.1-.5-.1-.9-.2-2.1-.5-3.5-.7-.1 0-.2 0-.3 0-1.2-.2-2.5-.3-3.8-.3-.5 0-.9 0-1.4 0-.2 0-.4 0-.7 0-.1 0-.2 0-.3 0-1.1 0-2.1.1-3.2.2h-.1c-1.4.2-2.8.5-4 .9.2-.6 1-1.2 1.8-1.8 1-.7 2-1.3 2-1.3-.6.1-1.2.3-1.8.5-.2.1-.4.1-.6.2-.1 0-.3.1-.4.1h-.1c-.1 0-.2.1-.3.1-3 1-5.8 2.5-7.4 3.4-.2.1-.4.2-.6.3l-.1.1c-.2 0-.3.1-.5.1.9-2.4 2.6-3.8 3.9-4.7.2-.1.4-.3.6-.4.1 0 .1-.1.2-.1.2-.1.3-.2.5-.2.3-.1.5-.2.5-.2-.1 0-.3.1-.4.1-.1 0-.2 0-.4.1-.2 0-.4.1-.5.1-.1 0-.2 0-.3.1-3.4.8-6.3 2.3-8.7 4.1-1.7 1.2-3.1 2.5-4.3 3.8-.3.1-.7.2-1.1.4-3.6 1.3-7.8 2.8-12.1 4.8-1.6.7-3.2 1.5-4.8 2.3-1.3.6-2.5 1.3-3.8 2-.9.5-1.8 1-2.7 1.6-6.5 3.9-12.8 8.9-17.8 15-.2.2-.4.4-.5.7-.4.6-.8 1.1-1.3 1.7-.2.2-.3.5-.5.7-.2.3-.4.6-.6.9-.9 1.4-1.8 2.8-2.5 4.3-.6 1.1-1.1 2.2-1.6 3.4l-.1.1c-1 2.4-1.9 5-2.5 7.7-.3 1.4-.6 2.8-.8 4.2-.1.4-.1.8-.2 1.1v.2c-.2 1.6-.3 3.2-.3 4.8 0 .3 0 .6 0 1 0 .8 0 1.6.1 2.5 0 .8.1 1.5.1 2.3v.2c0 .4.1.8.1 1.2 0 .4.1.9.2 1.3 0 .1 0 .2 0 .3.1.9.2 1.8.4 2.7v.1c.2.9.3 1.8.5 2.7.1.4.2.8.2 1.1 0 .1 0 .2.1.3 0 .2.1.4.2.6.2 1 .5 2 .8 3.1.1.3.2.6.2.9.3.9.5 1.8.8 2.7 0 0-.3-1.2-.4-3 0-.4 0-.9 0-1.3 0-1 .1-2.2.3-3.4.1-.3.1-.6.2-.9 0-.1.1-.3.1-.4.2-.6.3-1.1.6-1.7.1.4.2.7.4 1.1v.1.2c0 .2.1.5.1.7.1.6.1 1.2.2 1.9.1.7.2 1.5.3 2.3.5 3.4 1.3 7.4 2.5 10.8 0 0-.6-6.3.3-7.2 0 0 3.3 11.4 5.6 15.6.3.5.6 1 .8 1.2l-.2-1.2-1.1-6.5c0 0 0-.2 0-.7 1.6 2.5 3.4 5 5.5 7.6.6.7 1.1 1.4 1.7 2.2-2.9 3.2-5.3 7.6-6.9 12.6-.2.8-.5 1.6-.7 2.5-.1.5-.2 1-.3 1.4 0 .2-.1.3-.1.5-.1.3-.1.7-.2 1 0 .2-.1.4-.1.5 0 .3-.1.7-.1 1 0 .2 0 .3-.1.5 0 .5-.1 1-.1 1.5 0 .5 0 1-.1 1.5 0 .2 0 .3 0 .5 0 .4 0 .7 0 1.1 0 .2 0 .4 0 .6 0 .4 0 .7.1 1.1 0 .2 0 .3 0 .5 0 .5.1 1.1.2 1.6v.1c.1.4.1.8.2 1.2.1.4.1.8.2 1.3v.2.1c.1.5.2 1 .4 1.5 0 .2.1.3.1.5.1.3.2.7.3 1.1.1.2.1.4.2.6.1.3.2.6.3 1 .1.2.1.4.2.6.1.3.2.6.4.9.1.2.2.4.2.6.1.3.3.6.4.9.1.2.2.4.3.6.1.3.3.6.5 1 .1.2.2.4.3.6.2.4.4.7.6 1.1.1.2.2.3.3.5.6 1 1.2 2 1.9 3.1.1.2.2.3.3.5.3.4.5.7.8 1.1.1.2.3.4.4.6.2.3.5.6.8 1 .2.2.3.4.5.6.3.3.5.6.8.9.2.2.4.4.5.6.3.3.6.6.8.9.2.2.4.4.6.6.3.3.6.6.9.9.2.2.4.4.6.6.3.3.7.7 1.1 1 .2.2.3.3.5.5.5.5 1.1.9 1.7 1.4 0 0-.4-.4-.9-1.1-.1-.1-.2-.3-.3-.4-.1-.2-.2-.3-.3-.5-.1-.2-.2-.4-.4-.6-1-1.7-2-4.2-2.3-7 .3.4.7.7 1 1 .4.7 1 1.5 1.6 2.4.2.3.4.6.7.9.9 1.3 2 2.7 3.1 4.2 1.4 1.7 2.9 3.4 4.4 4.9 0 0-1.9-3-2.7-5-.2-.6-.3-1.1-.3-1.4.1.1.3.2.4.3.1.1.3.2.4.3.3.3.6.7 1 1.1l.2.2c.2.2.4.4.6.6.3.3.5.5.8.8 2.5 2.5 5.7 5.6 8 7.3.8.6 1.4.9 1.8 1.1l-3.6-4.8c7.2 4.5 35.2 8 61-3 3.1-1.3 6.2-2.9 9.2-4.6 1.8-1.1 3.6-2.2 5.4-3.5l.3-.2c1.2-.9 2.4-1.8 3.6-2.8.9-.7 1.8-1.5 2.7-2.3 1.5-1.3 2.9-2.7 4.3-4.2.1-.1.2-.2.2-.3 1.4-1.5 2.6-3.1 3.8-4.6 1.5-2.1 2.9-4.1 4.1-6.2l.1-.1c.3-.5.6-1 .8-1.5l.1-.1c.1-.2.2-.3.3-.5.4-.7.8-1.4 1.1-2.2.1-.2.2-.3.2-.5.2-.4.3-.8.5-1.1.1-.3.3-.6.4-.9.1-.3.3-.6.4-.9.2-.6.5-1.1.7-1.7.1-.2.2-.4.2-.7.2-.4.3-.9.5-1.3.1-.2.1-.4.2-.6l.1-.2c.2-.5.4-1.1.5-1.6v-.1c.8-.9 1.3-1.8 1.8-2.6.1-.1.1-.2.2-.3.9-2.2 1.1-3.8 1-5.2"/><path d="m64 171.6c0-.1-.1-.2-.1-.4-.5-1.7-1-3.4-1.4-5.2 0-.1-.1-.2-.1-.4-.3.1-.6.6-.8 1.1-.1.2-.2.5-.3.7-.7 1.8-1.2 4.3-1.2 4.3 0-.8 0-1.6-.1-2.5 0-.1 0-.2 0-.3 0-.8 0-1.7 0-2.6 0-.1 0-.2 0-.3 0-1 .1-1.9.1-2.8 0-.1 0-.2 0-.4v-.1c0-.1 0-.2 0-.3 0-.2 0-.3 0-.5 0-.7.1-1.4.1-2.1 0-.6.1-1.2.1-1.7v-.2c0-.1 0-.2 0-.2 0-.1 0-.2 0-.2 0-.1 0-.3 0-.4 0-.1 0-.2 0-.4 0-.2 0-.4 0-.6v-.1c0-.1 0-.3 0-.4 0-.2 0-.4.1-.5 0-.1 0-.2 0-.3 0-.1 0-.2 0-.2 0-.2 0-.3 0-.4v-.1-.1-.1l-.2.2c-.1.2-.3.3-.4.5l-.1.2c-.2.2-.3.5-.4.7l-.1.1c-.2.3-.3.6-.5.9l-.1.1c0 .1-.1.2-.1.2-.1.2-.2.4-.2.6v.1.1c-.1.3-.2.6-.3.9-.2.9-.4 1.7-.5 2.3 0 .2-.1.5-.1.7-.1.4-.1.8-.1.9v.1-.1c0-.3 0-.5 0-.8 0-.5-.1-1.1-.1-1.6 0-.4 0-.9 0-1.3 0-.1 0-.3 0-.4 0-.2 0-.4 0-.6 0-.2 0-.4 0-.6v-.2-.1c0-.2 0-.5 0-.7 0-.1 0-.2 0-.3v-.2c0-.1 0-.2 0-.2 0-.1 0-.2 0-.3 0-.3.1-.7.1-1v-.1c0-.2 0-.5.1-.7v-.1c.1-.5.1-1 .2-1.5v-.1-.1c0-.1 0-.2 0-.3.1-.8.3-1.6.5-2.4v-.1c.1-.7.3-1.3.5-2v-.1c.1-.3.2-.6.2-.8.1-.4.2-.8.3-1.3v-.1c0-.1.1-.4.2-.7 0-.1.1-.3.1-.4.1-.2.1-.5.2-.7l.1-.2 1.3-3.3c.1-.1.1-.3.2-.4v-.1l.1-.2c.1-.4.3-.7.4-1.1.2-.5.4-1 .6-1.5.4-1 .7-1.8.9-2.3.1-.3.2-.5.2-.5-.1 0-.6-.3-1.5-.7-1-.5-2.5-1.1-4.3-1.7-.6-.2-1.2-.4-1.8-.5-.8-.2-1.6-.4-2.4-.6-.2 0-.4-.1-.6-.1-.7-.1-1.4-.2-2.1-.3-.5-.1-1-.1-1.5-.1-.4 0-.8 0-1.2-.1-.2 0-.4 0-.6 0-.2 0-.4 0-.6 0-.5 0-1.1.1-1.6.1-.3 0-.5 0-.8.1-1.1.2-2.3.4-3.3.7l-.2.1c-2 .5-3.8 1.3-5.6 2.2-.6.3-1.2.6-1.7 1-.2.1-.3.2-.5.3-.2.1-.4.2-.6.4-1.7 1.2-3.3 2.5-4.7 4l-.1.1c-1.2 1.3-2.3 2.7-3.2 4.2-.3.4-.5.9-.8 1.3-.3.5-.6 1-.8 1.6-.5 1-.9 2.1-1.3 3.1-.1.4-.3.8-.4 1.1 0 .1 0 .1-.1.2-.7 2.5-1.1 5.1-1.2 7.8 0 .5 0 1.1 0 1.6v.2c0 .4.1.8.1 1.3 0 .5.1 1 .2 1.6 0 .1 0 .2 0 .2.1.4.1.8.2 1.2v.2c0 .1 0 .2.1.3.1.3.1.6.2.9v.1c0 .2.1.3.1.5.1.3.1.6.2.8.1.2.1.4.2.6.1.3.2.5.3.8.1.2.2.4.2.6l.1.1.1.2.1.2.1.2c.1.2.2.4.3.6.1.2.2.4.3.7.1.2.2.4.3.6l1 .3c.1.2.2.3.2.4.1.2.2.4.4.6.1.2.2.4.3.6.1.1.1.2.2.3.1.1.1.2.2.3.1.2.2.4.3.5.1.2.3.4.4.6.1.2.2.3.3.5.2.2.3.4.5.6.1.1.2.3.4.4.2.2.4.4.5.6.1.1.2.3.4.4.2.2.4.4.6.6.1.1.2.2.3.4.2.2.4.4.6.6.1.1.2.2.3.3.2.2.5.4.7.6.1.1.2.2.3.3.2.2.5.4.7.6.1.1.2.2.3.2.3.2.5.4.8.6.1.1.2.1.3.2.3.2.6.4.8.6.1.1.2.1.3.2.3.2.6.4.9.5.1 0 .2.1.3.1.3.2.6.3.9.5l.2.1c.3.2.7.3 1 .5l.2.1c.3.2.7.3 1.1.4l.2.1c.4.1.7.3 1.1.4l.2.1c.4.1.8.2 1.2.4h.1c.4.1.8.2 1.2.3h.1c.4.1.8.2 1.2.3h.1c.2 0 .4.1.6.1.2 0 .4.1.7.1h.1c.4.1.9.1 1.3.1 0 0 0 0 0 0 .4 0 .9.1 1.4.1 1.4 0 2.8 0 4.2-.2.3 0 .7-.1 1-.1.5-.1.9-.2 1.4-.3.6-.1 1.3-.3 1.9-.5.6-.2 1.1-.3 1.7-.5.9-.3 1.7-.6 2.5-1 2.5-1.1 4.6-2.3 5.8-3.5 0 0-1.4-3.8-2.6-7.7.1 0 0-.4-.1-.8"/></g><g fill="#fce9cd"><path d="m226.1 171c0 0 0-1.5-.9-2.8-.1-.1-.1-.1-.2-.2l-.1-.1c-.1-.1-.2-.2-.3-.3-.2-.2-.5-.3-.8-.5-.2-.1-.3-.1-.5-.2-.5-.2-1-.3-1.7-.3-.5 0-1 0-1.6.1-.2 0-.5.1-.7.1h-.1c0 0 0 .1.1.2 0 .1.1.2.2.4 0 .1.1.1.1.2.1.3.3.7.4 1.2 0 0 0 .1-.1.3v.1c-.2.7-.8 2.4-2.3 4.7-.3.4-.5.8-.9 1.2-4.3 5.7-14.2 14.4-36.3 21.3-7.5 2-14.6 3-20.7 3-9.1 0-16.1-2-19.7-5.5-.3-.3-.6-.6-.9-.9-.2-.2-.4-.5-.6-.7-.1-.1-.1-.2-.2-.3-1.6-2.2-2.5-4.7-2.8-7.2-.3-3 .2-6.1 1.6-8.5 1.1-2 2.6-3.5 4.6-4.4 1-.4 2-.7 3.1-.8.2 0 .5 0 .9 0 .8 0 1.8 0 3.1 0 .1 0 .3 0 .4 0 4.3 0 11.1-.2 19.2-1.7 14.7-2.8 33.7-9.9 49.5-28.1v-.1c-.1-1.3-.6-3.7-2.5-5.4-.3-.3-.7-.6-1.2-.8-.2-.1-.5-.3-.8-.4-.3-.1-.5-.2-.8-.3-.3-.2-.7-.3-.9-.5v-.1c-.1-.2-.3-.3-.4-.5-5.5-6.4-12.3-9.7-15.1-11.2-1.3-.7-2.1-1-2.1-1-5.9-2.7-6.8-3.7-7.5-12.8-.2-3.3-.4-7.6-.8-13.5 0-.8-.1-1.5-.2-2.2 0-.2 0-.3-.1-.5-.1-.7-.2-1.3-.3-1.9v-.2-.2c-.1-.5-.2-1-.3-1.4 0-.2-.1-.4-.1-.6-.1-.5-.2-1-.4-1.4-.1-.2-.1-.5-.2-.7-.1-.3-.2-.5-.3-.7-.1-.2-.2-.5-.3-.7-.1-.3-.2-.5-.3-.8 0-.1-.1-.2-.1-.3 0-.1-.1-.2-.1-.3v-.1l-.1-.3c-.1-.2-.2-.4-.3-.6v-.1l-.1-.2-.1-.2c-.2-.4-.4-.7-.7-1l-.2-.2c-.3-.3-.5-.6-.8-.9l-.1-.1-.1-.1c-.2-.2-.4-.4-.5-.6l-.2-.2c-.2-.2-.5-.4-.7-.6-.3-.2-.6-.5-.9-.7-.3-.2-.6-.3-1-.4-.1 0-.2-.1-.3-.1-.2-.1-.4-.1-.6-.2-.1 0-.2 0-.4-.1-.2 0-.4-.1-.6-.1-.1 0-.2 0-.4 0-.2 0-.4 0-.5 0-.1 0-.2 0-.4 0-.2 0-.3 0-.5 0-.1 0-.2 0-.3 0-.2 0-.3.1-.5.1-.1 0-.2 0-.3.1l-.2.1c-.1 0-.2.1-.3.1-.1 0-.2.1-.3.1-.2.1-.4.2-.6.2l-.2.1c-.5.2-1.1.5-1.6.8l-.2.1c-.2.1-.4.3-.6.4l-.2.2c-.2.1-.4.3-.6.4l-.2.2c-.2.1-.4.3-.5.4l-.2.2c-.2.2-.4.3-.6.5l-.2.2c-.2.2-.4.4-.6.5l-.1.1c-.2.2-.5.4-.7.6-.4.4-.9.8-1.3 1.2-.4.3-.8.7-1.1 1l-.2.2c-.4.3-.8.7-1.2 1l-.2.2c-.4.3-.8.6-1.2.9l-.2.2c-.4.3-.8.6-1.3.9l-.2.1c-.4.3-.9.5-1.3.8l-.2.1c-.5.2-.9.5-1.4.7h-.1c-.5.2-1 .4-1.6.5-.9.2-1.8.4-2.7.5-1.5.2-3 .3-4.6.2-.5 0-1 0-1.6-.1-.2 0-.4 0-.6 0-1.4-.1-2.7-.2-4.1-.4-.6-.1-1.2-.1-1.7-.2-.9-.1-1.9-.2-2.8-.3-.2 0-.4 0-.6-.1-.1 0-.3 0-.4 0-.2 0-.4 0-.6-.1-.2 0-.4 0-.6 0h-.1-.1c-.2 0-.4 0-.5 0-.4 0-.9 0-1.3-.1-.1 0-.3 0-.4 0-.3 0-.6 0-.9 0-.2 0-.3 0-.5 0-.3 0-.6 0-.8 0-.2 0-.4 0-.5 0-.1 0-.2 0-.2 0-.2 0-.4 0-.6 0-.2 0-.4 0-.5 0-.3 0-.6.1-.9.1-.1 0-.2 0-.3 0-.1 0-.2 0-.2 0-.4 0-.7.1-1.1.2-.1 0-.2 0-.3 0-.4.1-.9.2-1.3.3-.1 0-.2.1-.4.1-.3.1-.6.1-.9.2h-.1c-.2 0-.3.1-.5.1-.3.1-.6.2-.9.3-.2.1-.3.1-.5.2-.3.1-.6.2-.9.4-.2.1-.3.1-.5.2-.3.1-.6.3-.9.4-.1.1-.3.1-.4.2-.5.2-.9.5-1.4.8-3.5 2.6-6.4 6-8.5 9.8-.7 1.3-1.3 2.6-1.9 3.9-.6 1.4-1.1 2.9-1.4 4.3-.1.4-.2.9-.3 1.3-.2.7-.3 1.5-.4 2.2 0 .1 0 .2 0 .2-.1.8-.2 1.7-.3 2.5-.1.9-.1 1.8-.1 2.6 0 .5 0 .9 0 1.4.1 1.3.2 2.5.5 3.8 0 .1 0 .2.1.3.1.3.1.6.2 1 .2.9.4 1.8.7 2.6.1.3.2.6.4.9.1.3.2.6.3.9.9 2.2 2.1 4.1 3.4 5.9 5 6.6 12.3 10 17.4 11.6 2 .6 4.1 1.1 6.2 1.5 0 0-.1.1-.2.2-.4.1-.8.3-1.2.5-.7.3-1.5.6-2.4 1.1-1 .5-2.1 1-3.2 1.7-3 1.7-6.4 4-9.2 7-.4.4-.7.8-1.1 1.1-.6.7-1.1 1.4-1.6 2.1-.1.1-.1.2-.2.2-.1.1-.2.2-.2.3-.2.3-.4.6-.6.9-.1.1-.1.2-.2.4-.2.4-.5.8-.7 1.3-.2.4-.4.9-.6 1.3-1.5 3.5-2.1 7.6-1.1 12.3 0 0 0-.1 0-.2 0-.1 0-.2 0-.3v-.1c0-.1 0-.2 0-.4v-.1c0-.1 0-.3.1-.5 0-.2.1-.4.1-.5v-.1c0-.2.1-.4.1-.6v-.1c0-.2.1-.4.2-.6v-.1c.1-.2.1-.5.2-.7v-.2c.1-.2.2-.5.3-.8 0 0 0 0 0 0 .1-.4.3-.8.5-1.2.1-.1.1-.3.2-.4l.1-.1c.2-.3.3-.6.5-.9.1-.3.3-.5.5-.8.1-.1.1-.2.2-.2.1-.2.3-.4.4-.6.1-.1.1-.2.2-.2.2-.3.4-.5.6-.7 0 0-3.1 10.2-.3 17.7 0 0 0 0 0-.1 0 0 0-.1 0-.2 0-.1 0-.2 0-.3 0-.1 0-.2 0-.4 0-.1 0-.3 0-.5 0-.2 0-.4 0-.6 0-.2 0-.4 0-.6 0 0 0 0 0-.1 0-.2 0-.5 0-.7v-.1-.1c0-.3 0-.6.1-.8 0 0 0 0 0-.1 0-.3.1-.6.1-.9 0-.1 0-.2.1-.3v-.2c.1-.2.1-.5.2-.7.1-.3.2-.7.3-1 0-.1.1-.2.1-.3.1-.3.3-.6.5-.9 0 0 0 2.4.5 5.3.1.4.1.9.2 1.4.1.3.1.6.2.9-.2-3.1 0-6 .5-8.8-.5 2.8-.7 5.7-.5 8.8.1 2 .4 4 .9 6.1.8 3.5 2.1 7.1 4 10.8 0 0-1.9-4.3-.5-9 .2.4.5.8.7 1.2.3 1.3.8 3.2 1.5 5.2.8 3.4 3.8 13.6 11.7 20 0 0-3.1-3.1-3.2-7.7.4.6.7 1.1 1 1.5 1.5 2.1 4.4 6 7.4 8.6 0 0-2.6-3.8-2.3-4.8 0 0 8 7.8 10.3 8.3l-3.5-4.4-.1-.1c11 6.1 25.1 7 41.6.2 2.8-1.2 5.7-2.6 8.7-4.3 1.8-1.1 3.6-2.2 5.4-3.5l.3-.2c1.2-.9 2.4-1.8 3.6-2.8.9-.7 1.8-1.5 2.7-2.3 1.5-1.3 2.9-2.7 4.3-4.2.1-.1.2-.2.2-.3 1.4-1.5 2.6-3.1 3.8-4.6 1.5-2.1 2.9-4.1 4.1-6.2l.1-.1c.3-.5.6-1 .8-1.5l.1-.1c.1-.2.2-.3.3-.5.4-.7.8-1.4 1.1-2.2.1-.2.2-.3.2-.5.2-.4.3-.8.5-1.1.1-.3.3-.6.4-.9.1-.3.3-.6.4-.9.2-.6.5-1.1.7-1.7.1-.2.2-.4.2-.7.2-.4.3-.9.5-1.3.1-.2.1-.4.2-.6l.1-.2c.2-.5.4-1.1.5-1.6v-.1c.8-.9 1.3-1.8 1.8-2.6.1-.1.1-.2.2-.3.4-1.8.6-3.4.5-4.8"/><path d="m62.4 165.6c-.3.1-.6.6-.8 1.1-.1.2-.2.5-.3.7-.7 1.8-1.2 4.3-1.2 4.3 0-.8 0-1.6-.1-2.5 0-.1 0-.2 0-.3 0-.8 0-1.7 0-2.6 0-.1 0-.2 0-.3 0-1 .1-1.9.1-2.8 0-.1 0-.2 0-.4v-.1c0-.1 0-.2 0-.3 0-.2 0-.3 0-.5 0-.7.1-1.4.1-2.1 0-.6.1-1.2.1-1.7v-.2c0-.1 0-.2 0-.2 0-.1 0-.2 0-.2 0-.1 0-.3 0-.4 0-.1 0-.2 0-.4 0-.2 0-.4 0-.6v-.1c0-.1 0-.3 0-.4 0-.2 0-.4.1-.5 0-.1 0-.2 0-.3 0-.1 0-.2 0-.2 0-.2 0-.3 0-.4v-.1-.1-.1l-.2.2c-.1.2-.3.3-.4.5l-.1.2c-.2.2-.3.5-.4.7l-.1.1c-.2.3-.3.6-.5.9l-.1.1c0 .1-.1.2-.1.2-.1.2-.2.4-.2.6v.1.1c-.1.3-.2.6-.3.9-.2.9-.4 1.7-.5 2.3 0 .2-.1.5-.1.7-.1.4-.1.8-.1.9v.1-.1c0-.3 0-.5 0-.8 0-.5-.1-1.1-.1-1.6 0-.4 0-.9 0-1.3 0-.1 0-.3 0-.4 0-.2 0-.4 0-.6 0-.2 0-.4 0-.6v-.2-.1c0-.2 0-.5 0-.7 0-.1 0-.2 0-.3v-.2c0-.1 0-.2 0-.2 0-.1 0-.2 0-.3 0-.3.1-.7.1-1v-.1c0-.2 0-.5.1-.7v-.1c.1-.5.1-1 .2-1.5v-.1-.1c0-.1 0-.2 0-.3.1-.8.3-1.6.5-2.4v-.1c.1-.7.3-1.3.5-2v-.1c.1-.3.2-.6.2-.8.1-.4.2-.8.3-1.3v-.1c0-.1.1-.4.2-.7 0-.1.1-.3.1-.4.1-.2.1-.5.2-.7l.1-.2c-.1-.1-.3-.1-.5-.2h-.1l-.2-.1c-1-.3-2-.6-3-.7h-.2c-.7-.1-1.3-.1-2-.1-.4 0-.8 0-1.2.1-.3 0-.7.1-1 .1-.5.1-1 .2-1.5.3-.2 0-.3.1-.4.1-.2.1-.5.1-.7.2-.1 0-.2.1-.3.1-.2.1-.3.1-.5.2-.3.1-.6.3-.9.4-.1.1-.3.1-.4.2-.4.2-.8.4-1.2.7-.2.1-.3.2-.4.3-.2.1-.4.2-.5.4l-.2.1c-.2.1-.4.3-.6.4-.2.1-.3.3-.5.4-.2.2-.4.3-.6.5-.1.1-.2.2-.3.3-.3.3-.6.6-.9 1-.1.2-.3.3-.4.5-.2.3-.5.6-.7.9l-.1.2c-.1.2-.2.4-.3.5-.1.1-.1.2-.2.4-.4.8-.8 1.6-1.1 2.4 0 .1-.1.2-.1.4-.1.4-.2.8-.3 1.2 0 .2-.1.3-.1.5-.1.4-.2.9-.2 1.3v.2.2c0 .3-.1.6-.1 1 0 .2 0 .3 0 .5 0 .2 0 .3 0 .5 0 .1 0 .3 0 .4 0 .5.1 1 .1 1.5.1.4.1.8.2 1.2v.2c0 .2.1.4.2.6.2.8.5 1.5.8 2.2.2.5.5 1.1.8 1.6.5.9 1.2 1.8 1.8 2.6 1.4 1.7 3.2 3 5.2 4 1.1.5 2.3.9 3.6 1.2 1.2.3 2.4.4 3.7.4.3 0 .6 0 .9 0 .4 0 .9-.1 1.3-.1.4-.1.8-.2 1.2-.2.2 0 .4-.1.7-.1.6-.1 1.1-.3 1.6-.5h.1c.2-.1.4-.2.6-.3.7-.3 1.3-.6 1.9-1l.1-.1c.2-.1.3-.2.5-.3-.5-1.7-1-3.4-1.4-5.2.6 0 .5-.2.5-.3"/></g><g fill="#e9b784"><path d="m138.1 99.6c-.8-.3-1.6-.5-2.4-.6-.5-.1-1.1-.1-1.6-.1-.2 0-.4 0-.6 0-2.7.1-4.9.8-4.9.8-.5.2-.9.4-1.4.6-3.5 1.5-5.7 3.7-7.2 6.1-1.2 1.9-1.9 4-2.2 5.9 0 .2-.1.3-.1.5-.1.5-.1 1-.2 1.5-.1 1.6-.1 3.1 0 4.2.1 1.6.4 2.6.4 2.6.5-1.4 1-2.8 1.5-4 1.3-3.1 2.8-5.7 4.4-7.8 3.1-4.1 6.5-6.5 9.2-7.9 3-1.5 5.1-1.8 5.1-1.8"/><path d="m180.4 89.2l-.1-.1c-.5-.5-1-.9-1.6-1.2-1.5-.8-3.4-1-6-.2 0 0-3 1.1-4.6 3.4 0 0 5.1-3 11.3.4.6.3 1.1.7 1.7 1.1.6.4 1.2.9 1.8 1.5 0 0-.5-2.5-2.2-4.4-.1-.3-.2-.4-.3-.5"/><path d="m130.2 125.1c.2-.2.4-.4.6-.5.1-.1.2-.2.3-.2.2-.2.4-.3.6-.5.1-.1.2-.2.4-.3.2-.1.4-.3.6-.4.1-.1.3-.2.4-.3.2-.1.4-.3.6-.4.2-.1.3-.2.5-.3.2-.1.4-.2.7-.3.2-.1.4-.2.6-.3.2-.1.5-.2.7-.3.2-.1.5-.2.7-.2.2-.1.4-.2.7-.2h.1c.3-.1.6-.2 1-.2.1 0 .2 0 .3-.1.2 0 .4-.1.6-.1.1 0 .2 0 .3 0 .2 0 .4 0 .6-.1.1 0 .2 0 .3 0 .2 0 .4 0 .5 0h.2.1c.4 0 .8 0 1.2.1h.2c.4 0 .7.1 1.1.2h.2c.4.1.7.1 1 .2h.1c.3.1.7.2 1 .3.4.1.7.3 1 .4.3.1.6.3.9.5-.5-1.8-2-5.7-6.2-6.7-.6-.1-1.2-.2-1.9-.2-.2 0-.3 0-.5 0-.6 0-1.3.1-2 .3-7.9 1.7-8.3 8.3-8.2 10.5.2-.2.4-.5.6-.7l.1-.2"/></g><path fill="#fff" d="m219.4 167.7c0-.1-.1-.2-.1-.2-.1-.2-.1-.3-.2-.4-.7-1.5-1.5-2.7-2.1-3.5-.8-1-1.5-1.5-1.5-1.5.1-.4.1-.8.1-1.2 0-.5.1-1 .1-1.5 0-3.7-1.3-6.3-2.3-7.8-.2-.2-.3-.4-.4-.6-.5.5-1 .9-1.5 1.4-9.8 8.5-21.2 14.7-34 18.3-8.8 2.5-18.2 3.8-28.2 3.8h.2c0 0-5.8 1.5-6.7 7.4h.1v3.9c.8 5.1 3.6 8.1 6.5 9.4 2.9.7 6.4 1.1 10.2 1.1 6.6 0 14-1.1 21.5-3.3 10-2.6 23.6-9.8 32.9-18 2.1-1.9 4-3.8 5.6-5.8l.1-.1.1-.1c-.1-.5-.2-1-.4-1.3"/><g fill="#f2d2ac"><path d="m137.4 120.9c-.2.1-.4.1-.7.2.3 0 .5-.1.7-.2h.1-.1"/><path d="m139.1 142.3c.3-.2.7-.5 1-.7.1-.1.3-.2.4-.3.3-.2.7-.4 1-.7.2-.1.3-.2.5-.3.3-.2.7-.4 1-.6.2-.1.4-.2.5-.3.3-.2.7-.4 1-.6.2-.1.4-.2.6-.4.3-.2.7-.4 1-.6.2-.1.5-.3.7-.4.3-.2.7-.4 1-.5.3-.1.5-.3.8-.4.3-.2.7-.3 1-.5.3-.1.6-.3.9-.4.3-.2.7-.3 1-.5.3-.2.6-.3 1-.5.3-.1.6-.3 1-.4.4-.2.7-.3 1.1-.5.3-.1.6-.3.9-.4.4-.2.8-.3 1.2-.5.2-.1.4-.2.6-.3 1.1-4.3 4.7-15 12.8-17.1.9-.2 1.7-.4 2.4-.5.2 0 .4-.1.6-.1-.2-.6-.3-1.2-.4-1.8-.8-4.3.1-8.1 2-8.5 1.5-.3 2.9 1.7 3.2 2.4.7 1.3 1.3 2.9 1.7 4.8.3 1.7.4 3.3.2 4.7.2.2.3.3.5.5 2.2 2.1 2.9 5.3 3.1 7.6.7-.2 1.5-.3 2.2-.5.2 0 .4-.1.6-.1h.1c.1 0 .2 0 .3-.1.9-.2 1.9-.4 2.8-.6 2.1-.4 4.4-.8 6.6-1.2-1.3-.7-2.1-1-2.1-1-5.9-2.7-6.8-3.7-7.5-12.8-.2-3.3-.4-7.6-.8-13.5 0-.8-.1-1.5-.2-2.2 0-.2 0-.3-.1-.5-.1-.7-.2-1.3-.3-1.9v-.2-.2c-.1-.5-.2-1-.3-1.4 0-.2-.1-.4-.1-.6-.1-.5-.2-1-.4-1.4-.1-.2-.1-.5-.2-.7-.1-.3-.2-.5-.3-.7-.1-.2-.2-.5-.3-.7-.9-1.1-2-2-3.2-2.7l-.2-.1-.2-.1h-.1c-.2-.1-.4-.2-.5-.3-.2-.1-.4-.2-.6-.3-1.7-.8-3.6-1.2-5.6-1.2-1.1 0-2.2.1-3.3.2-.5.1-1.1.2-1.6.3-1.4.3-2.8.8-4.2 1.4-.4.4-.9.8-1.3 1.2-.4.3-.8.7-1.1 1l-.2.2c-.4.3-.8.7-1.2 1l-.2.2c-.4.3-.8.6-1.2.9l-.2.2c-.4.3-.8.6-1.3.9l-.2.1c-.4.3-.9.5-1.3.8l-.2.1c-.5.2-.9.5-1.4.7h-.1c-.5.2-1 .4-1.6.5-.9.2-1.8.4-2.7.5-1.5.2-3 .3-4.6.2-.5 0-1 0-1.6-.1-.2 0-.4 0-.6 0-1.4-.1-2.7-.2-4.1-.4-.6-.1-1.2-.1-1.7-.2-.9-.1-1.9-.2-2.8-.3-.2 0-.4 0-.6-.1-.8.1-1.5.3-2.3.5h-.2c-2.2.6-4.4 1.4-6.5 2.4-.1.1-.2.1-.4.2-.3.2-.7.3-1 .5-.4.2-.9.5-1.3.8-3.1 1.8-6 4.2-8.6 7-1.1 1.1-2 2.3-2.9 3.6-1.4 1.9-2.6 3.9-3.6 5.9-.1.1-.1.2-.2.3-.5 1.1-1 2.2-1.4 3.3-.1.4-.3.8-.4 1.2v.1c-.4 1.3-.8 2.6-1.1 4 0 .1 0 .2 0 .2 0 .2-.1.4-.1.6-.1.6-.2 1.2-.3 1.8-.1.6-.2 1.3-.2 1.9 0 .1 0 .3 0 .4 0 .4 0 .8-.1 1.2 0 1.4 0 2.8.2 4.2 0 .3.1.7.1 1 .9 2.2 2.1 4.1 3.4 5.9 5 6.6 12.3 10 17.4 11.6 2 .6 4.1 1.1 6.2 1.5l.1.1.1-.1c.2-.2.5-.5.7-.7.1-.1.2-.2.3-.3.3-.2.5-.5.8-.7.1-.1.2-.2.3-.2.3-.2.5-.5.8-.7.1-.1.2-.2.3-.2.3-.2.6-.5.9-.7.1-.1.2-.2.3-.2.3-.2.6-.5.9-.7.1-.1.2-.2.3-.2.3-.2.6-.5.9-.7.1-.1.2-.2.3-.3.3-.2.6-.5 1-.7.5-.1.6-.2.7-.3m33.5-54.6c2.5-.9 4.5-.6 6 .2.6.3 1.2.7 1.6 1.2l.1.1c.1.1.2.2.3.4 1.7 2 2.2 4.4 2.2 4.4-.6-.6-1.2-1-1.8-1.5-.6-.4-1.2-.8-1.7-1.1-6.2-3.4-11.3-.4-11.3-.4 1.6-2.2 4.6-3.3 4.6-3.3m-48.7 21.6c-1.6 2.1-3.1 4.7-4.4 7.8-.5 1.3-1 2.6-1.5 4 0 0-.2-1-.4-2.6-.1-1.2-.2-2.6 0-4.2 0-.5.1-1 .2-1.5 0-.2.1-.3.1-.5.4-1.9 1-4 2.2-5.9 1.5-2.4 3.8-4.6 7.2-6.1.4-.2.9-.4 1.4-.6 0 0 2.2-.7 4.9-.8.2 0 .4 0 .6 0 .5 0 1.1 0 1.6.1.8.1 1.6.3 2.4.6 0 0-2.1.3-5 1.8-2.8 1.4-6.2 3.8-9.3 7.9m4.4 19.8c-.2.1-.4.1-.5 0-.3-.2.1-1.5 1.5-3.1-.1-2.2.3-8.8 8.2-10.5.7-.1 1.4-.2 2-.3.2 0 .3 0 .5 0 .7 0 1.3.1 1.9.2 4.2.9 5.7 4.8 6.2 6.7 1.4.8 2 1.6 1.8 1.7-.1.2-.3.2-.6.2-.3.2-1.1.3-2.1.4-2 .2-5.1.4-8.5 1.3-.2.1-.5.1-.7.2-5 1.4-8.8 3.6-9.7 3.2"/><path d="m141.4 120.4h-.2c.1 0 .2 0 .2 0"/><path d="m222.4 179.6c-3.2 3.7-6.7 6.7-10.2 9.2-1.7 1.3-3.5 2.4-5.2 3.4-3.9 2.3-7.6 4-10.9 5.3-7.4 2.8-12.7 3.5-12.7 3.5 4.4 1.8 9.7 1.1 13.3.3 2.4-.6 4.1-1.2 4.1-1.2.1 1.5.1 3 0 4.3-.1 1.5-.4 2.9-.7 4.1v.1c-.4 1.6-1 3-1.7 4.2-.1.1-.1.3-.2.4l.3-.2c1.2-.9 2.4-1.8 3.6-2.8.9-.7 1.8-1.5 2.7-2.3 1.5-1.3 2.9-2.7 4.3-4.2.1-.1.2-.2.2-.3 1.4-1.5 2.6-3.1 3.8-4.6 1.5-2.1 2.9-4.1 4.1-6.2l.1-.1c.3-.5.6-1 .8-1.5l.1-.1c.1-.2.2-.3.3-.5.4-.7.8-1.4 1.1-2.2.1-.2.2-.3.2-.5.2-.4.3-.8.5-1.1.1-.3.3-.6.4-.9.1-.3.3-.6.4-.9.2-.6.5-1.1.7-1.7.1-.2.2-.4.2-.7.2-.4.3-.9.5-1.3.1-.2.1-.4.2-.6l.1-.2c.2-.5.4-1.1.5-1.6-.5.4-.7.6-.9.9"/><path d="m126.9 150.9c-1 .5-2.1 1-3.2 1.7-3 1.7-6.4 4-9.2 7-.4.4-.7.8-1.1 1.1-.6.7-1.1 1.4-1.6 2.1-.1.1-.1.2-.2.2-.1.1-.2.2-.2.3-.2.3-.4.6-.6.9-.1.1-.1.2-.2.4-.2.4-.5.8-.7 1.3-.2.4-.4.9-.6 1.3-1.5 3.5-2.1 7.6-1.1 12.3 0 0 0-.1 0-.2 0-.1 0-.2 0-.3v-.1c0-.1 0-.2 0-.4v-.1c0-.1 0-.3.1-.5 0-.2.1-.4.1-.5v-.1c0-.2.1-.4.1-.6v-.1c0-.2.1-.4.2-.6v-.1c.1-.2.1-.5.2-.7v-.2c.1-.2.2-.5.3-.8 0 0 0 0 0 0 .1-.4.3-.8.5-1.2.1-.1.1-.3.2-.4l.1-.1c.2-.3.3-.6.5-.9.1-.3.3-.5.5-.8.1-.1.1-.2.2-.2.1-.2.3-.4.4-.6.1-.1.1-.2.2-.2.2-.3.4-.5.6-.7 0 0-3.1 10.2-.3 17.7 0 0 0 0 0-.1 0 0 0-.1 0-.2 0-.1 0-.2 0-.3 0-.1 0-.2 0-.4 0-.1 0-.3 0-.5 0-.2 0-.4 0-.6 0-.2 0-.4 0-.6 0 0 0 0 0-.1 0-.2 0-.5 0-.7v-.1-.1c0-.3 0-.6.1-.8 0 0 0 0 0-.1 0-.3.1-.6.1-.9 0-.1 0-.2.1-.3v-.2c.1-.2.1-.5.2-.7.1-.3.2-.7.3-1 0-.1.1-.2.1-.3.1-.3.3-.6.5-.9 0 0 0 2.4.5 5.3.1.4.1.9.2 1.4.1.3.1.6.2.9-.2-3.1 0-6 .5-8.8.1-.8.3-1.5.5-2.3 0-.1 0-.2.1-.3.2-.7.4-1.4.6-2.1 0-.1.1-.3.1-.4.2-.7.4-1.3.7-2 0-.1.1-.2.1-.3.5-1.4 1.1-2.6 1.7-3.9 0-.1.1-.2.1-.3.2-.5.5-.9.7-1.4.1-.1.1-.2.2-.4.1-.1.1-.2.2-.3.3-.5.6-1.1.9-1.6 0-.1.1-.2.1-.2.3-.5.7-1.1 1-1.6.4-.6.8-1.2 1.2-1.8.3-.4.6-.8.9-1.2.1-.1.2-.3.3-.4.7-.9 1.4-1.8 2.1-2.5 2-2.3 3.6-3.7 4.1-4.2-.4.1-.8.3-1.2.5-.7.1-1.5.4-2.4.9"/><path d="m181.4 122.3c0 0-.1-.2-.2-.6-.5-1.4-2.3-4.6-7.8-3.3-5.7 1.3-7.1 6.2-7.4 7.8-.1.3-.1.6-.1.6l.2.1c.7-.7 2.1-.8 3.4-.2.6.3 1.1.7 1.5 1.2.6.7.8 1.5.5 2.1-.1.1-.1.3-.2.4 0 0 .2.1.6.1 1.7.3 6.2.7 8.3-2.8.1-.2.2-.3.3-.5-.5-.2-.9-.8-1-1.7-.1-.4-.1-.8 0-1.3.3-1.3 1.1-2.2 1.9-1.9"/><path d="m158 168.3c-3.6 1.2-6.8 2.2-9.3 2.9.1 0 .3 0 .4 0 4.3 0 11.1-.2 19.2-1.7 14.7-2.8 33.7-9.9 49.5-28.1v-.1c-.1-1.3-.6-3.7-2.5-5.4-.3-.3-.7-.6-1.2-.8-.1 0-.1-.1-.2-.1-.5-.2-.9-.4-1.3-.6-.3-.2-.7-.3-.9-.5v-.1c-.9 1.7-2 3.4-3.2 5-.4.6-.9 1.1-1.4 1.7-4.3 5-10.2 9.5-16.7 13.4-10.8 6.3-23 11.2-32.4 14.4"/><path d="m60.7 154.1c-.1.2-.3.3-.4.5l-.1.2c-.2.2-.3.5-.4.7l-.1.1c-.2.3-.3.6-.5.9l-.1.1c0 .1-.1.2-.1.2-.1.2-.2.4-.2.6v.1.1c-.1.3-.2.6-.3.9-.2.9-.4 1.7-.5 2.3 0 .2-.1.5-.1.7-.1.4-.1.8-.1.9v.1-.1c0-.3 0-.5 0-.8 0-.5-.1-1.1-.1-1.6 0-.4 0-.9 0-1.3 0-.1 0-.3 0-.4 0-.2 0-.4 0-.6 0-.2 0-.4 0-.6v-.2-.1c0-.2 0-.5 0-.7 0-.1 0-.2 0-.3v-.2c0-.1 0-.2 0-.2 0-.1 0-.2 0-.3 0-.3.1-.7.1-1v-.1c0-.2 0-.5.1-.7v-.1c.1-.5.1-1 .2-1.5v-.1-.1c0-.1 0-.2 0-.3.1-.8.3-1.6.5-2.4v-.1c.1-.7.3-1.3.5-2v-.1c.1-.3.2-.6.2-.8.1-.4.2-.8.3-1.3v-.1c0-.1.1-.4.2-.7 0-.1.1-.3.1-.4.1-.2.1-.5.2-.7l.1-.2c-.1-.1-.3-.1-.5-.2h-.1l-.2-.1c-1-.3-2-.6-3-.7h-.2c-.7-.1-1.3-.1-2-.1-.4 0-.8 0-1.2.1-.3 0-.7.1-1 .1-.5.1-1 .2-1.5.3-.2 0-.3.1-.4.1-.2.1-.5.1-.7.2-.1 0-.2.1-.3.1-.2.1-.3.1-.5.2-.3.1-.6.3-.9.4-.1.1-.3.1-.4.2-.4.2-.8.4-1.2.7-.2.1-.3.2-.4.3-.2.1-.4.2-.5.4l-.2.1c-.2.1-.4.3-.6.4-.2.1-.3.3-.5.4-.2.2-.4.3-.6.5-.1.1-.2.2-.3.3-.3.3-.6.6-.9 1-.1.2-.3.3-.4.5-.2.3-.5.6-.7.9l-.1.2c-.1.2-.2.4-.3.5-.1.1-.1.2-.2.4-.4.8-.8 1.6-1.1 2.4 0 .1-.1.2-.1.4-.1.4-.2.8-.3 1.2 0 .2-.1.3-.1.5 0 .1.1.2.1.3.2.3.3.7.5 1l.1.1.1.1c.2.3.3.6.5 1 .5.9 1.1 1.8 1.6 2.5.1.1.2.2.2.3l.1.6.1.1c.4.5.8 1 1.1 1.4.5.6 1 1.1 1.3 1.4.1.1.1.1.2.2 0 0 .1.1.1.1.1.1.2.2.2.2-.1-.2-.1-.3-.2-.5-.4-1.2-.7-2.5-.9-3.7v-.1-.1c-.1-.8-.2-1.6-.2-2.3.1.3.2.6.4.8.2.4.4.8.6 1.2l.1.1c.8 1.6 1.7 2.9 2.5 4 1 1.3 1.8 2.1 2.3 2.6.1.1.2.2.3.2.1.1.2.2.2.2-.5-1.3-.8-2.6-1-3.9-.1-.4-.1-.9-.2-1.3-.1-.6-.1-1.1-.1-1.6.4.9.7 1.7 1.1 2.5v.1c1.4 2.7 3 4.7 4 5.8l.1.1c.2.2.3.4.5.5.1.1.2.2.3.3.1.1.2.2.2.2.1.1.1.1.1.1l-.1-.2c-.1-.2-.1-.4-.2-.5-.2-.7-.4-1.3-.5-2-.1-.4-.2-.9-.3-1.3-.1-.4-.1-.8-.2-1.2 0-.1 0-.1 0-.2 0-.2 0-.4-.1-.6v-.1-.1c0-.5-.1-1.1-.1-1.6.1.3.3.7.4 1 .1.2.2.5.3.7v.1l.1.1c.1.3.3.5.4.8.3.5.5.9.8 1.3.3.5.7 1 1 1.4.2.2.4.5.5.7.2.3.4.5.6.8.2.2.4.4.5.6 0 0 .1.1.1.1.2.2.3.3.4.4.1.1.2.2.3.3.2.2.3.3.4.4l.1.1c0-.1 0-.2 0-.3 0-.8 0-1.7 0-2.6 0-.1 0-.2 0-.3 0-1 .1-1.9.1-2.8 0-.1 0-.2 0-.4v-.1c0-.1 0-.2 0-.3 0-.2 0-.3 0-.5 0-.7.1-1.4.1-2.1 0-.6.1-1.2.1-1.7v-.2c0-.1 0-.2 0-.2 0-.1 0-.2 0-.2 0-.1 0-.3 0-.4 0-.1 0-.2 0-.4 0-.2 0-.4 0-.6v-.1c0-.1 0-.3 0-.4 0-.2 0-.4.1-.5 0-.1 0-.2 0-.3 0-.1 0-.2 0-.2 0-.2 0-.3 0-.4v-.1-.1-.1l.8-.2"/><path d="m186.1 180.6c1.3-.7 2.5-1.2 3.4-1.7 1.8-1 2.8-1.7 2.7-1.9-.1-.2-1.2.1-3.2.8-1 .4-2.2.7-3.5 1.2-.7.3-1.4.4-2.2.7-.8.2-1.6.5-2.5.7-1.7.5-3.7.9-5.8 1.5-1 .2-2.1.4-3.2.7-1.1.2-2.3.4-3.5.6-4.8.7-10 1.2-15.5.9-2.9-.1-6.8-1-9.7-2.2h-.1c.9-5.9 6.7-7.4 6.7-7.4h-.2c-.1 0-.2 0-.3 0-.9 0-1.6 0-2.3 0-.5 0-.9 0-1.2 0-.3 0-.6 0-.7 0-3.6.2-5.2 3.5-5.7 4.8-.1.2-.1.4-.2.6-.4 1.2-.5 2.6-.5 4.1.2 2.7 1.2 5.5 3.6 7.8 1.6 1.5 4.1 2.7 7.3 3.5-2.9-1.4-5.6-4.3-6.5-9.4 3.2.9 6.8 1.3 9.5 1.4 5.8.3 11.3-.2 16.2-1.1 1.2-.3 2.4-.5 3.6-.8 1.1-.3 2.3-.6 3.3-.9 2.1-.6 4-1.2 5.8-1.9.9-.3 1.7-.6 2.5-1 .8-.4 1.6-.6 2.2-1"/></g><g fill="#664f44"><path d="m173.2 114.9c3-.3 5.1.4 6.6 1.6.2-1.4.1-3-.2-4.7-.3-1.9-1-3.5-1.7-4.8-.3-.7-1.7-2.7-3.2-2.4-1.9.4-2.8 4.1-2 8.5.2.6.3 1.2.5 1.8"/><path d="m138.4 123.9c3.4-1 6.6-.5 8.7-.2 1 .2 1.8.3 2.2.3.3 0 .5-.1.6-.2.2-.2-.5-1-1.8-1.7-.3-.2-.6-.3-.9-.5-.3-.1-.7-.3-1-.4-.3-.1-.6-.2-1-.3h-.1c-.3-.1-.7-.2-1-.2h-.2c-.3-.1-.7-.1-1.1-.2h-.2c-.4 0-.8-.1-1.2-.1-.1 0-.2 0-.3 0-.2 0-.4 0-.5 0-.1 0-.2 0-.3 0-.2 0-.4 0-.6.1-.1 0-.2 0-.3 0-.2 0-.4.1-.6.1-.1 0-.2 0-.3.1-.3.1-.6.1-.9.2h-.1c-.2.1-.4.1-.7.2-.2.1-.5.1-.7.2-.2.1-.5.2-.7.3-.2.1-.4.2-.6.3-.2.1-.4.2-.7.3-.2.1-.4.2-.5.3-.2.1-.4.3-.6.4-.1.1-.3.2-.4.3-.2.1-.4.3-.6.4-.1.1-.2.2-.4.3-.2.2-.4.3-.6.5-.1.1-.2.2-.3.2-.2.2-.4.4-.6.5l-.2.2c-.2.2-.4.5-.6.7-1.4 1.6-1.8 3-1.5 3.1.1.1.3.1.5 0 1.3-.5 4.5-3.5 9.3-5 .4 0 .6-.1.8-.2"/><path d="m179.6 125.5c.1.8.5 1.5 1 1.7.8.3 1.5-.6 1.8-2 0-.1 0-.2 0-.4.1-1.2-.3-2.3-1-2.6-.7-.3-1.5.6-1.8 2 0 .5-.1.9 0 1.3"/><path d="m166.4 129.3c.4.5.9.9 1.6 1.2 1.4.7 2.8.5 3.5-.2.1-.1.2-.2.2-.4.3-.6 0-1.4-.5-2.1-.4-.4-.9-.9-1.5-1.2-1.4-.6-2.8-.5-3.4.2-.1.1-.2.2-.3.4-.4.7-.2 1.4.4 2.1"/><path d="m217.9 141.3l-.1.1c0 0 0 0 .1-.1"/><path d="m219.8 169.1c-1.7 2-3.6 4-5.7 5.8-9.3 8.2-23 15.4-32.9 18-7.5 2.2-14.9 3.3-21.5 3.3-3.8 0-7.3-.4-10.2-1.1-3.2-.8-5.8-2-7.3-3.5-2.4-2.2-3.4-5.1-3.6-7.8-.1-1.4.1-2.8.5-4.1.1-.2.1-.4.2-.6.5-1.4 2.1-4.6 5.7-4.8.1 0 .4 0 .7 0 .3 0 .8 0 1.2 0 .7 0 1.4 0 2.3 0 .1 0 .2 0 .3 0 9.9 0 19.4-1.3 28.2-3.8 12.8-3.6 24.2-9.7 34-18.3.5-.5 1-.9 1.5-1.4l4.8-9.5c-15.8 18.2-34.7 25.3-49.5 28-8.1 1.5-14.9 1.7-19.2 1.7-.2 0-.3 0-.4 0-1.3 0-2.3 0-3.1 0-.4 0-.7 0-.9 0-1.1.1-2.2.3-3.1.8-1.9.9-3.5 2.5-4.6 4.4-1.3 2.4-1.9 5.4-1.6 8.5.3 2.5 1.2 5 2.8 7.2.1.1.1.2.2.3.2.2.4.5.6.7.3.3.6.6.9.9 3.6 3.4 10.6 5.5 19.7 5.5 6.1 0 13.2-.9 20.7-3 22.1-6.9 31.9-15.5 36.3-21.3.3-.4.6-.8.9-1.2 1.5-2.3 2.1-3.9 2.3-4.7v-.1c.1-.2.1-.3.1-.3l-.3.4"/></g><path fill="#132134" d="m180.4 11.8c-2-1.8-4.3-3-6.7-3.9-.4-.1-.9-.2-1.3-.3-.2-.1-.5-.2-.7-.3-2.1-.5-4.3-.8-6.5-.8-10.9-.1-22.7 5.3-29.4 8.9-.4.2-.7.4-1.1.6-.6.3-1.1.6-1.7 1-1 .6-1.9 1.2-2.9 1.8-.1.1-.3.2-.4.3l-2.2-2-1-.9-.9-.8-.4-.4-8.2-7.5-.7-.7-.8-.8h-.1l-2 .7-2.3.8c-1.4-.5-3-.7-4.8-.7-3.6 0-8.2.9-13.2 2.9-5 2-10.6 4.9-16.4 8.7-11.7 7.7-24.3 18.8-36.1 32.4-4.1 4.8-7.9 9.6-11.4 14.4-3.3 4.6-6.4 9.3-9 13.8-5.4 9.2-9.4 17.9-11.6 25.6-1.5 5.1-2.3 9.7-2.3 13.6 0 2.8.4 5.2 1.1 7.2.2.6.5 1.2.8 1.7.6 1.1 1.3 2.1 2.2 2.9l9 7.4 1 .8v-.1c.2-.3.4-.6.7-.9l.1-.1c.1-.1.2-.2.2-.3.2-.3.4-.6.6-.8.1-.2.3-.3.4-.5.1-.2.3-.3.4-.5.1-.1.1-.1.2-.2.1-.2.3-.3.4-.5.2-.2.4-.5.6-.7.1-.1.3-.3.4-.4l.1-.1c.2-.2.5-.5.7-.7.1-.1.3-.3.4-.4.2-.2.5-.4.7-.7.1-.1.3-.3.5-.4.3-.2.5-.4.8-.6.2-.1.3-.2.5-.4.3-.2.6-.4.8-.6.2-.1.3-.2.5-.3l.2-.1c.2-.2.5-.3.7-.5.1-.1.3-.2.4-.3.2-.1.4-.3.6-.4.2-.1.4-.2.6-.3l.2-.1c.5-.3.9-.5 1.4-.7.2-.1.3-.1.5-.2.2-.1.3-.2.5-.2l.2-.1c.1 0 .2-.1.3-.1.2-.1.4-.2.6-.3l.2-.1c.2-.1.5-.2.7-.3.2-.1.5-.2.7-.3.3-.1.6-.2.9-.3.1 0 .2-.1.4-.1.1 0 .2-.1.4-.1.3-.1.6-.2.9-.2.3-.1.5-.1.8-.2.2 0 .4-.1.6-.2.1 0 .2 0 .2-.1.1 0 .2 0 .3-.1h.2c1-.2 2.1-.3 3.4-.3h.2c1.3 0 2.6 0 4.1.1.3 0 .7.1 1 .1.1-.1.1-.3.2-.4.6-1.4 1.2-2.8 1.8-4.2 3.6-8 7.6-15.1 11.8-21.4 1.4-2.1 2.9-4.2 4.4-6.2 6.1-8.2 12.5-14.7 18.4-19.8 1.3-1.1 2.6-2.2 3.9-3.2 1.7-1.4 3.4-2.6 5-3.8 1.3-.9 2.5-1.8 3.7-2.6 2-1.3 3.8-2.4 5.4-3.3.5-.3 1-.6 1.4-.8.7-.4 1.3-.7 1.9-1-.5 0-1.1 0-1.6.1-.5 0-1 .1-1.6.1-.1 0-.3 0-.4 0-.5.1-1.1.1-1.6.2-1 .2-2.1.4-3.1.7-.4.1-.7.2-1.1.3 2.5-1.7 5-3.1 7.5-4.1 1.6-.7 3.2-1.3 4.8-1.8 2.1-.7 4.2-1.2 6.1-1.5 1.3-.2 2.5-.4 3.6-.5 1.1-.1 2.2-.2 3.1-.2 3.3-.1 5.3.1 5.3.1-.5-.6-1.2-1.1-1.9-1.5-1.3-.8-2.7-1.2-3.9-1.6-.5-.1-.9-.2-1.3-.3-.3-.1-.6-.1-.9-.1.5-.2 1.1-.3 1.6-.4.6-.1 1.1-.3 1.7-.4 4.6-1 8.8-1.1 11.9-.9 3.8.2 6.1.9 6.1.9-.7-1-1.5-1.8-2.5-2.4-.7-.5-1.4-.9-2.1-1.2 1.3.1 2.5.3 3.7.5 3.1.6 5.7 1.3 7.8 2 .7.2 1.3.5 1.9.7.2.1.3.1.5.2 1.9.8 3 1.4 3 1.4-.4-1-1.2-2-2-2.8-.2-.2-.4-.4-.6-.6h.1c.1 0 .2 0 .4.1.2 0 .3.1.6.1.8.2 2.1.5 3.6 1.1.1 0 .1.1.2.1.2.1.4.2.6.2.5.2 1.1.4 1.6.7.5.2 1 .5 1.6.8.3.1.6.3.8.4.6.3 1.2.7 1.8 1.1.6.4 1.2.8 1.8 1.3.1.1.2.2.3.3.4.3.8.7 1.2 1.1.8.7 1.5 1.5 2.2 2.4.8 1 1.5 2.2 2.1 3.5 0 .1.1.1.1.2.3-.4.7-1 1.3-1.9 5-7.5 19.6-31.4 7.6-43.5"/><path fill="#2f83c1" d="m109.7 16.4l-.8-3.9 1.5-4.6.8-.3c-1.4-.5-3-.7-4.8-.7-3.6 0-8.2.9-13.2 2.9-5 2-10.6 4.9-16.4 8.7-11.8 7.6-24.4 18.7-36.2 32.3-4.1 4.8-7.9 9.6-11.4 14.4-3.3 4.6-6.4 9.3-9 13.8-5.4 9.2-9.4 17.9-11.6 25.6-1.5 5.1-2.3 9.7-2.3 13.6 0 2.8.4 5.2 1.1 7.2.2.6.5 1.2.8 1.7.6 1.1 1.3 2.1 2.2 2.9l9 7.4 1 .8v-.1c.2-.3.4-.6.7-.9l.1-.1c.1-.1.2-.2.2-.3.2-.3.4-.6.6-.8.1-.2.3-.3.4-.5.1-.2.3-.3.4-.5.1-.1.1-.1.2-.2.1-.2.3-.3.4-.5.2-.2.4-.5.6-.7.1-.1.3-.3.4-.4l.1-.1c.2-.2.5-.5.7-.7.1-.1.3-.3.4-.4.2-.2.5-.4.7-.7.1-.1.3-.3.5-.4.3-.2.5-.4.8-.6.2-.1.3-.2.5-.4.3-.2.6-.4.8-.6.2-.1.3-.2.5-.3l.2-.1c1.3-5.5 3.5-11.6 6.5-18.1 3.7-7.9 8.6-16.4 14.7-24.9 3.8-5.4 8-10.8 12.6-16.1 6-6.9 12.2-13.2 18.3-18.7 4.2-3.7 8.3-7.1 12.4-10.1.4-.3.8-.6 1.2-.9 1.1-.8 2.2-1.5 3.3-2.3 2.3-1.6 4.7-3.1 6.9-4.4l-1.3-1.3-.2-.2-1.7-1.6-9.5-9-.8-6.8-.1-.1 5.6-2.4 12.2 4.4"/><path fill="#4d9ed7" d="m112.3 17.4l.3.1z"/><path fill="#ffd250" d="m115.5 6l-5.2 1.8 2.3 9.6-15.1-5.5-5.6 2.4.1.1 19.6 17.6.2-.1.2-.2c.5-.4 1-.8 1.5-1.2.2-.1.3-.3.5-.4.7-.6 1.5-1.1 2.2-1.7l-8.3-7.5 12.6 4.4c.3-.2.7-.5 1-.7l-2.1-8.3 6.1 5.6h.1c.4-.3.8-.6 1.3-.8l.1-.1.2-.1c.1 0 .1-.1.2-.1.2-.1.4-.2.5-.4 0 0 .1 0 .1-.1.6-.4 1.2-.8 1.8-1.1l-14.3-13.2"/><g fill="#4d9ed7"><path d="m110.4 8.2l-.1-.4.1.4"/><path d="m110.3 7.8l.8-.3c-1.4-.5-3-.7-4.8-.7-3.6 0-8.2.9-13.2 2.9-5 2-10.6 4.9-16.4 8.7-11.7 7.7-24.3 18.8-36.1 32.4-4.1 4.8-7.9 9.6-11.4 14.4l18.4 17.8c3.8-5.3 8-10.6 12.5-15.9 6.1-7 12.4-13.4 18.7-19.1 6.1-5.5 12.2-10.2 18.2-14.2l-4.3-12.3-.7-7-.1-.1 5.6-2.4 12.1 4.5-.8-3.9 1.5-4.8"/></g><g fill="#132134"><path d="m110.3 7.8l-1.4 4.7.8 3.9 2.9 1.1z"/><path d="m107.8 20.9l12.6 4.4-4.2 3.2z"/><path d="m119.3 16.3l2.1 8.3 4.1-2.8z"/></g><path fill="#fff" d="m163.8 7.8c.7-.1 1.4-.2 2.1-.3 2-.2 3.9-.2 5.7.1.1 0 .2 0 .3 0h.1.2.2c-.2-.1-.5-.2-.7-.3-2.1-.5-4.3-.8-6.5-.8-10.9-.1-22.7 5.3-29.4 8.9-.4.2-.7.4-1.1.6-.6.3-1.1.6-1.7 1-1 .6-1.9 1.2-2.9 1.8-.1.1-.3.2-.4.3-.6.4-1.2.7-1.8 1.1 0 0-.1 0-.1.1-.2.1-.4.2-.5.4-.1 0-.1.1-.2.1l-.2.1-.1.1c-.4.3-.8.5-1.3.8h-.1c0 0 0 0 0 0-.1.1-.2.1-.3.2h-.1c-.1.1-.2.1-.2.2-.7.4-1.3.9-2 1.3-.5.3-.9.6-1.4.9l-.1.1c-.3.2-.7.5-1 .7-1.1.8-2.2 1.6-3.2 2.4-.1.1-.2.2-.3.2-.1.1-.2.1-.3.2-.1.1-.2.1-.3.2l-.1.1c-.7.6-1.5 1.1-2.2 1.7-.2.1-.4.3-.5.4-.5.4-1 .8-1.5 1.2l-.2.2-.2.1c-1.4 1.1-2.7 2.3-4.1 3.5-2.2 1.9-4.4 3.9-6.6 6-.3.3-.6.5-.8.8-5.7 5.4-11.1 11.2-16.2 17.1-5.4 6.2-10.5 12.7-15.3 19.1-2.6 3.3-4.8 6.3-6.7 8.8-3.6 5-5.6 8-5.5 8.1 0 0 .4-.3.9-1.1-.5.7-.9 1.4-1.4 2.1 7.9-10.8 16.9-21.9 26.6-32.5 5.9-6.5 12.1-12.7 18.6-18.6 2.8-2.6 5.7-5.1 8.7-7.5.9-.8 1.9-1.5 2.8-2.3.5-.4 1-.7 1.4-1.1.3-.2.5-.4.8-.6.5-.4 1-.8 1.5-1.2.5-.4 1-.8 1.5-1.1.3-.2.5-.4.8-.6.6-.5 1.3-.9 1.9-1.4.4-.3.8-.6 1.2-.8 1.2-.9 2.5-1.7 3.7-2.5.1-.1.2-.1.3-.2.2-.1.4-.3.6-.4.3-.2.5-.3.8-.5.1-.1.2-.1.3-.2.2-.1.3-.2.5-.3 0 0 .1 0 .1-.1h.1c.5-.3 1.1-.7 1.6-1 .1-.1.2-.1.3-.2.2-.1.3-.2.5-.3.6-.4 1.2-.8 1.9-1.2.2-.1.3-.2.5-.3.1-.1.2-.1.3-.2.2-.1.3-.2.5-.3.7-.4 1.4-.9 2.1-1.3.6-.4 1.3-.7 1.9-1.1 3.6-2 6.9-3.8 10.1-5.2 6.1-3 11.4-4.7 16.1-5.5"/></svg>