<svg id="Layer_1" data-name="Layer 1" xmlns="http://www.w3.org/2000/svg" viewBox="0 0 547.77 410.59"><title>sass</title><path d="M503.6,244.2A112.63,112.63,0,0,0,454,255.75c-5.08-10.15-10.23-19.07-11.09-25.71-1-7.75-2.18-12.37-1-21.6s6.56-22.3,6.48-23.28-1.2-5.68-12.24-5.76-20.49,2.12-21.6,5A109,109,0,0,0,410,200.76c-1.93,10-22,45.72-33.47,64.41-3.73-7.29-6.91-13.72-7.57-18.8-1-7.75-2.18-12.37-1-21.6s6.56-22.3,6.48-23.28-1.2-5.68-12.24-5.76-20.49,2.12-21.6,5-2.3,9.73-4.56,16.32-29,66.16-36,81.6c-3.57,7.87-6.67,14.19-8.87,18.5v0l-0.37.77c-1.88,3.67-3,5.71-3,5.71l0,0.08c-1.49,2.7-3.08,5.2-3.87,5.2-0.55,0-1.66-7.18.24-17,4-20.66,13.54-52.89,13.44-54,0-.57,1.78-6.18-6.24-9.12-7.79-2.85-10.57,1.91-11.28,1.92s-1.2,1.68-1.2,1.68,8.68-36.24-16.56-36.24c-15.78,0-37.65,17.26-48.42,32.91-6.8,3.71-21.34,11.65-36.78,20.13l-17.71,9.75c-0.39-.43-0.78-0.86-1.18-1.29C127.7,245,71.12,221.86,73.52,178c0.87-16,6.42-58,108.72-109C266,27.24,333.13,38.73,344.72,64.2c16.56,36.38-35.85,104-122.88,113.76-33.16,3.72-50.62-9.13-55-13.92-4.57-5-5.25-5.27-7-4.32-2.78,1.54-1,6,0,8.64,2.6,6.76,13.26,18.75,31.44,24.72,16,5.25,54.92,8.13,102-10.08,52.73-20.4,93.9-77.13,81.81-124.56-12.3-48.23-92.28-64.09-168-37.2-45,16-93.82,41.12-128.88,73.92-41.69,39-48.34,72.94-45.6,87.12,9.73,50.39,79.19,83.21,107,107.53l-3.83,2.11c-13.94,6.9-66.89,34.6-80.13,63.88-15,33.21,2.39,57,13.92,60.24,35.72,9.94,72.37-7.94,92.07-37.32S179,311.1,170,293.64c-0.11-.22-0.24-0.43-0.35-0.64l10.91-6.43c7.1-4.17,14.06-8.05,20.11-11.34-3.38,9.27-5.86,20.38-7.15,36.42-1.51,18.85,6.21,43.21,16.32,52.8,4.45,4.22,9.81,4.32,13.2,4.32,11.76,0,17.13-9.79,23-21.36,7.25-14.2,13.68-30.72,13.68-30.72s-8.07,44.64,13.92,44.64c8,0,16.07-10.39,19.66-15.69l0,0.09,0.62-1c0.83-1.27,1.3-2.08,1.3-2.08l0-.23c3.22-5.59,10.36-18.34,21.08-39.37,13.84-27.17,27.12-61.2,27.12-61.2a182,182,0,0,0,5.28,22.08c2.38,8.1,7.44,17,11.42,25.63-3.21,4.46-5.18,7-5.18,7l0.05,0.13c-2.57,3.41-5.44,7.08-8.45,10.67-10.92,13-23.94,27.87-25.68,32.16-2.05,5.05-1.57,8.77,2.4,11.76,2.9,2.18,8.06,2.52,13.44,2.16a61.26,61.26,0,0,0,20.13-4.58,67.75,67.75,0,0,0,17.31-9.1c10.72-7.88,17.18-19.15,16.56-34.08-0.34-8.23-3-16.38-6.29-24.08q1.46-2.1,2.93-4.24a457.41,457.41,0,0,0,30-51.84,181.86,181.86,0,0,0,5.28,22.08c2,7,6.09,14.56,9.72,22-15.89,12.91-25.74,27.91-29.16,37.75-6.32,18.2-1.37,26.44,7.92,28.32,4.21,0.85,10.15-1.08,14.62-3a67.78,67.78,0,0,0,18.5-9.51c10.72-7.88,21-18.91,20.4-33.84a63.52,63.52,0,0,0-4.63-20c13.47-5.61,30.9-8.73,53.11-6.14,47.64,5.56,57,35.31,55.2,47.76s-11.78,19.29-15.12,21.36-4.36,2.78-4.08,4.32c0.41,2.23,2,2.15,4.8,1.67,3.92-.66,25-10.13,25.92-33.11C581.07,276,553.11,243.94,503.6,244.2ZM136.39,368c-15.78,17.21-37.83,23.72-47.28,18.24-10.21-5.92-6.17-31.26,13.2-49.53,11.8-11.13,27-21.39,37.15-27.7l9.79-5.88,1.06-.6,0,0,2.44-1.46C159.78,327,153,349.93,136.39,368Zm115-78.15c-5.5,13.4-17,47.68-24,45.84-6-1.58-9.67-27.63-1.2-53.28,4.26-12.91,13.37-28.33,18.72-34.32,8.61-9.63,18.1-12.79,20.4-8.88C268.21,244.19,254.8,281.45,251.35,289.85Zm95,45.32c-2.33,1.22-4.47,2-5.46,1.39-0.73-.43,1-2,1-2s11.88-12.78,16.56-18.6c2.72-3.38,5.88-7.4,9.32-11.89,0,0.45,0,.89,0,1.33C367.71,320.67,352.92,331,346.33,335.17Zm73.17-16.68c-1.74-1.24-1.45-5.23,4.27-17.69a66.79,66.79,0,0,1,16.26-21,30.25,30.25,0,0,1,1.64,9.23C441.55,308.3,427.81,315.5,419.5,318.49Z" transform="translate(-32.18 -8.21)" style="fill:#cd6799"/></svg>