<?xml version="1.0" encoding="iso-8859-1"?><!-- Generator: Adobe Illustrator 16.0.0, SVG Export Plug-In . SVG Version: 6.00 Build 0) --><!DOCTYPE svg PUBLIC "-//W3C//DTD SVG 1.1//EN" "http://www.w3.org/Graphics/SVG/1.1/DTD/svg11.dtd"><svg version="1.1" id="svg2" inkscape:version="0.48.1 " sodipodi:docname="WordPress_blue_logo.svg" xmlns:rdf="http://www.w3.org/1999/02/22-rdf-syntax-ns#" xmlns:sodipodi="http://sodipodi.sourceforge.net/DTD/sodipodi-0.dtd" xmlns:dc="http://purl.org/dc/elements/1.1/" xmlns:inkscape="http://www.inkscape.org/namespaces/inkscape" xmlns:svg="http://www.w3.org/2000/svg" xmlns:cc="http://creativecommons.org/ns#" xmlns="http://www.w3.org/2000/svg" xmlns:xlink="http://www.w3.org/1999/xlink" x="0px" y="0px" width="122.522px" height="122.523px" viewBox="0 0 122.522 122.523" style="enable-background:new 0 0 122.522 122.523;" xml:space="preserve"><sodipodi:namedview id="namedview34" inkscape:window-y="0" inkscape:window-width="1052" inkscape:pageshadow="2" inkscape:window-maximized="0" inkscape:window-x="0" inkscape:window-height="726" inkscape:pageopacity="0" inkscape:current-layer="svg2" objecttolerance="10" bordercolor="#666666" guidetolerance="10" inkscape:cx="304.14148" showgrid="false" borderopacity="1" pagecolor="#ffffff" inkscape:cy="59.951461" inkscape:zoom="1.24" gridtolerance="10"></sodipodi:namedview><g id="Layer_1"></g><g><defs><rect id="SVGID_1_" x="0" y="0" width="122.522" height="122.523"/></defs><clipPath id="SVGID_2_"><use xlink:href="#SVGID_1_" style="overflow:visible;"/></clipPath><g id="g6" style="clip-path:url(#SVGID_2_);"><path id="path8" inkscape:connector-curvature="0" style="fill:#00749A;" d="M313.19,48.227h-21.257v2.255	c6.649,0,7.718,1.425,7.718,9.856V75.54c0,8.431-1.067,9.976-7.718,9.976c-5.104-0.713-8.55-3.444-13.3-8.67l-5.462-5.937	c7.361-1.308,11.28-5.938,11.28-11.164c0-6.53-5.58-11.518-16.031-11.518h-20.9v2.255c6.649,0,7.718,1.425,7.718,9.856V75.54	c0,8.431-1.068,9.976-7.718,9.976v2.256h23.631v-2.256c-6.648,0-7.718-1.545-7.718-9.976v-4.273h2.019l13.182,16.505h34.557	c16.981,0,24.345-9.024,24.345-19.832C337.534,57.133,330.172,48.227,313.19,48.227L313.19,48.227z M263.434,67.582V51.79h4.868	c5.343,0,7.719,3.681,7.719,7.956c0,4.157-2.376,7.837-7.719,7.837L263.434,67.582L263.434,67.582z M313.547,84.09h-0.832	c-4.274,0-4.868-1.067-4.868-6.53V51.79c0,0,5.225,0,5.7,0c12.35,0,14.604,9.024,14.604,16.031	C328.152,75.064,325.896,84.09,313.547,84.09z"/><path id="path10" inkscape:connector-curvature="0" style="fill:#00749A;" d="M181.378,71.978l8.193-24.228	c2.376-7.006,1.308-9.023-6.293-9.023v-2.376h22.325v2.376c-7.48,0-9.262,1.78-12.23,10.449L179.834,89.79h-1.543l-12.114-37.17	l-12.349,37.17h-1.545l-13.181-40.613c-2.85-8.669-4.75-10.449-11.638-10.449v-2.376h26.363v2.376	c-7.008,0-8.908,1.662-6.413,9.023l7.956,24.228l11.993-35.627h2.258L181.378,71.978z"/><path id="path12" inkscape:connector-curvature="0" style="fill:#00749A;" d="M221.752,89.314c-13.062,0-23.75-9.618-23.75-21.376	c0-11.638,10.688-21.257,23.75-21.257c13.062,0,23.75,9.619,23.75,21.257C245.502,79.696,234.815,89.314,221.752,89.314z M221.752,50.365c-10.924,0-14.726,9.854-14.726,17.574c0,7.839,3.802,17.576,14.726,17.576c11.045,0,14.845-9.737,14.845-17.576	C236.597,60.219,232.797,50.365,221.752,50.365z"/><path id="path14" inkscape:connector-curvature="0" style="fill:#464342;" d="M366.864,85.396v2.375H339.67v-2.375	c7.957,0,9.382-2.019,9.382-13.896V52.502c0-11.877-1.425-13.775-9.382-13.775V36.35h24.581c12.23,0,19.002,6.294,19.002,14.727	c0,8.194-6.771,14.606-19.002,14.606h-6.77V71.5C357.482,83.378,358.906,85.396,366.864,85.396z M364.251,40.625h-6.77v20.664	h6.77c6.65,0,9.737-4.631,9.737-10.212C373.989,45.377,370.902,40.625,364.251,40.625z"/><path id="path16" inkscape:connector-curvature="0" style="fill:#464342;" d="M464.833,76.609l-0.595,2.137	c-1.067,3.919-2.376,5.344-10.807,5.344h-1.663c-6.174,0-7.243-1.425-7.243-9.855v-5.462c9.263,0,9.976,0.83,9.976,7.006h2.257	V58.083h-2.257c0,6.175-0.713,7.006-9.976,7.006V51.79h6.53c8.433,0,9.738,1.425,10.807,5.344l0.596,2.256h1.898l-0.83-11.162	h-34.914v2.255c6.649,0,7.719,1.425,7.719,9.856V75.54c0,7.713-0.907,9.656-6.15,9.934c-4.983-0.762-8.404-3.479-13.085-8.628	l-5.463-5.937c7.363-1.308,11.282-5.938,11.282-11.164c0-6.53-5.581-11.518-16.031-11.518h-20.9v2.255	c6.649,0,7.719,1.425,7.719,9.856V75.54c0,8.431-1.068,9.976-7.719,9.976v2.256h23.632v-2.256c-6.648,0-7.719-1.545-7.719-9.976	v-4.273h2.02l13.181,16.505h48.806l0.713-11.161L464.833,76.609L464.833,76.609z M401.896,67.582V51.79h4.868	c5.344,0,7.72,3.681,7.72,7.956c0,4.157-2.376,7.837-7.72,7.837L401.896,67.582L401.896,67.582z"/><path id="path18" inkscape:connector-curvature="0" style="fill:#464342;" d="M488.939,89.314c-4.75,0-8.907-2.493-10.688-4.038	c-0.595,0.595-1.662,2.376-1.899,4.038h-2.257V72.927h2.375c0.951,7.838,6.412,12.469,13.419,12.469	c3.8,0,6.888-2.138,6.888-5.699c0-3.087-2.73-5.463-7.6-7.719l-6.77-3.206c-4.751-2.258-8.312-6.178-8.312-11.401	c0-5.7,5.344-10.568,12.707-10.568c3.919,0,7.243,1.426,9.263,3.088c0.593-0.476,1.188-1.782,1.544-3.208h2.256v14.014h-2.494	c-0.832-5.582-3.919-10.213-10.212-10.213c-3.325,0-6.413,1.899-6.413,4.87c0,3.087,2.493,4.749,8.194,7.361l6.53,3.206	c5.701,2.731,7.956,7.127,7.956,10.689C503.426,84.09,496.895,89.314,488.939,89.314L488.939,89.314z"/><path id="path20" inkscape:connector-curvature="0" style="fill:#464342;" d="M525.514,89.314c-4.751,0-8.908-2.493-10.688-4.038	c-0.594,0.595-1.662,2.376-1.898,4.038h-2.257V72.927h2.375c0.95,7.838,6.411,12.469,13.419,12.469c3.8,0,6.888-2.138,6.888-5.699	c0-3.087-2.731-5.463-7.601-7.719l-6.77-3.206c-4.75-2.258-8.312-6.178-8.312-11.401c0-5.7,5.344-10.568,12.707-10.568	c3.919,0,7.242,1.426,9.263,3.088c0.593-0.476,1.187-1.782,1.542-3.208h2.257v14.014h-2.493	c-0.832-5.582-3.919-10.213-10.212-10.213c-3.325,0-6.414,1.899-6.414,4.87c0,3.087,2.494,4.749,8.195,7.361l6.53,3.206	C537.745,68.652,540,73.048,540,76.61C540,84.09,533.469,89.314,525.514,89.314L525.514,89.314z"/><g id="g22"><path id="path24" inkscape:connector-curvature="0" style="fill:#00749A;" d="M8.708,61.26c0,20.803,12.089,38.779,29.619,47.299	L13.258,39.872C10.342,46.408,8.708,53.641,8.708,61.26z"/><path id="path26" inkscape:connector-curvature="0" style="fill:#00749A;" d="M96.74,58.608c0-6.495-2.333-10.993-4.334-14.494	c-2.664-4.329-5.16-7.995-5.16-12.324c0-4.831,3.663-9.328,8.824-9.328c0.233,0,0.454,0.029,0.682,0.042	C87.401,13.938,74.944,8.708,61.262,8.708c-18.36,0-34.513,9.42-43.91,23.688c1.233,0.037,2.396,0.062,3.382,0.062	c5.497,0,14.006-0.667,14.006-0.667c2.833-0.167,3.167,3.994,0.338,4.329c0,0-2.848,0.335-6.016,0.501l19.138,56.925	l11.502-34.493L51.513,36.62c-2.83-0.166-5.511-0.501-5.511-0.501c-2.832-0.166-2.5-4.496,0.332-4.329	c0,0,8.679,0.667,13.843,0.667c5.496,0,14.006-0.667,14.006-0.667c2.835-0.167,3.168,3.994,0.337,4.329	c0,0-2.853,0.335-6.015,0.501l18.992,56.494l5.241-17.517C95.011,68.328,96.74,63.107,96.74,58.608z"/><path id="path28" inkscape:connector-curvature="0" style="fill:#00749A;" d="M62.184,65.857l-15.768,45.818	c4.708,1.385,9.687,2.142,14.846,2.142c6.12,0,11.989-1.059,17.452-2.979c-0.142-0.225-0.27-0.464-0.374-0.724L62.184,65.857z"/><path id="path30" inkscape:connector-curvature="0" style="fill:#00749A;" d="M107.376,36.046	c0.226,1.674,0.354,3.472,0.354,5.404c0,5.333-0.996,11.328-3.996,18.824l-16.053,46.413	c15.624-9.111,26.133-26.038,26.133-45.427C113.815,52.124,111.481,43.532,107.376,36.046z"/><path id="path32" inkscape:connector-curvature="0" style="fill:#00749A;" d="M61.262,0C27.483,0,0,27.481,0,61.26	c0,33.783,27.482,61.264,61.262,61.264c33.778,0,61.265-27.48,61.265-61.264C122.526,27.481,95.04,0,61.262,0z M61.262,119.715	c-32.23,0-58.453-26.223-58.453-58.455c0-32.229,26.222-58.45,58.453-58.45c32.229,0,58.45,26.221,58.45,58.45	C119.712,93.492,93.49,119.715,61.262,119.715z"/></g></g></g></svg>